<?xml version="1.0" encoding="UTF-8"?>
<svg id="_圖層_1" data-name="圖層 1" xmlns="http://www.w3.org/2000/svg" viewBox="0 0 2180 1080">
  <defs>
    <style>
      .cls-1 {
        fill: #231815;
      }

      .cls-2 {
        fill: #fff;
      }

      .cls-3 {
        fill: none;
      }

      .cls-4 {
        fill: #ed3240;
      }
    </style>
  </defs>
  <g>
    <path class="cls-1" d="M1393.91,449.74h11.4l1.89,13.38h8.55l-.3-19.22h-60.7l-.38,19.22h8.63l1.89-13.38h11.32c.17,8.73.18,17.5.18,26.21v3.83c0,8.64,0,17.2-.16,25.6l-8.83.89v5.55h35.42v-5.55l-8.9-.88c-.16-8.54-.17-17.12-.17-25.69v-3.75c0-8.85,0-17.61.18-26.21Z"/>
    <path class="cls-1" d="M1450.85,443.76h-10.68l-21.06,61.31-8.33,1.21v5.55h22.29v-5.55l-7.94-1.26,4.2-12.92h20.84l4.24,13.35-7.98,1.06v5.33h31.87v-5.33l-6.26-.73-21.19-62.01ZM1431.28,486.07l8.58-26.38,8.39,26.38h-16.96Z"/>
    <path class="cls-1" d="M1490.4,443.9h-7.65v5.55l7.79.8c.16,8.56.17,17.16.17,25.69v3.83c0,8.67,0,17.26-.17,25.69l-7.79.8v5.55h33.35v-5.55l-7.86-.8c-.16-8.57-.17-17.18-.17-25.78v-3.75c0-8.67,0-17.27.17-25.7l7.86-.8v-5.55h-25.7Z"/>
    <polygon class="cls-1" points="1620.65 449.45 1620.65 443.9 1614.6 443.9 1608.02 443.9 1598.79 443.9 1598.79 449.45 1606.11 450.63 1594.17 492.63 1582.16 450.55 1591.23 449.45 1591.23 443.9 1580.27 443.9 1569.72 443.9 1560.25 443.9 1560.25 449.45 1567.8 450.38 1555.43 492.14 1544.75 450.3 1552.38 449.45 1552.38 443.9 1543.11 443.9 1524.77 443.9 1520.29 443.9 1520.29 449.45 1526.64 450.13 1545.16 512.03 1555.23 512.03 1569.57 464.88 1584.19 512.03 1594.3 512.03 1612.55 450.78 1620.65 449.45"/>
    <path class="cls-1" d="M1650.51,443.76h-10.68l-21.06,61.31-8.33,1.21v5.55h22.29v-5.55l-7.94-1.26,4.2-12.92h20.84l4.24,13.35-7.98,1.06v5.33h31.87v-5.33l-6.26-.73-21.19-62.01ZM1630.95,486.07l8.58-26.38,8.39,26.38h-16.96Z"/>
    <polygon class="cls-1" points="1735.89 443.9 1724.06 443.9 1724.06 449.45 1735.89 450.77 1735.89 485.66 1705.46 443.9 1682.12 443.9 1682.12 449.53 1689.23 450.13 1690.77 452.27 1690.77 505.04 1681.98 506.28 1681.98 511.83 1690.77 511.83 1697.43 511.83 1709.25 511.83 1709.25 506.28 1697.43 504.9 1697.43 461.52 1733.8 512.03 1742.55 512.03 1742.55 494.81 1742.55 450.75 1751.34 449.45 1751.34 443.9 1742.55 443.9 1735.89 443.9"/>
  </g>
  <g>
    <path class="cls-1" d="M1353.52,670.12c8.77-8.58,17.48-17.12,25.31-25.05,18.05-18.45,27.22-30.89,27.22-48.18,0-14.88-7.54-23.46-19.44-23.46-5.56,0-11.2.82-18.43,4.22l14.32-8.55-3.08,18.24c-2.08,13.06-8.32,16.15-14.23,16.15-5.46,0-10.1-2.99-12.48-7.79.59-21.08,20.68-32.12,44.53-32.12,27.69,0,39.66,14.37,39.66,33.12s-13.9,33.69-45.7,55.24c-6.68,4.61-14.08,9.83-21.44,15.24l-2.85-3.55h72.5v23.61h-85.88v-17.1Z"/>
    <path class="cls-1" d="M1544.47,626.92c0,44.18-21.52,63.19-45.31,63.19s-45.01-19.01-45.01-63.19,21.11-63.36,45.01-63.36,45.31,18.98,45.31,63.36ZM1499.16,680.12c9.05,0,16.38-10.47,16.38-53.19s-7.33-53.5-16.38-53.5-16.08,10.28-16.08,53.5,6.91,53.19,16.08,53.19Z"/>
    <path class="cls-1" d="M1561.17,670.12c8.77-8.58,17.48-17.12,25.31-25.05,18.05-18.45,27.22-30.89,27.22-48.18,0-14.88-7.54-23.46-19.44-23.46-5.56,0-11.2.82-18.43,4.22l14.32-8.55-3.08,18.24c-2.08,13.06-8.32,16.15-14.23,16.15-5.46,0-10.1-2.99-12.48-7.79.59-21.08,20.68-32.12,44.53-32.12,27.69,0,39.66,14.37,39.66,33.12s-13.9,33.69-45.7,55.24c-6.68,4.61-14.08,9.83-21.44,15.24l-2.85-3.55h72.5v23.61h-85.88v-17.1Z"/>
    <path class="cls-1" d="M1722.9,652.64c0-18.37-5.46-27.9-16.38-27.9-6.51,0-13.41,3.01-18.86,11.72l-4.09-2.13c6.69-15.38,19.32-22.46,34.23-22.46,23.17,0,35.19,14.5,35.19,36.8,0,27.67-20.26,41.46-44.41,41.46-29.34,0-48.23-18.67-48.23-52.24,0-39.01,33.58-70.01,83.01-74.32l1.15,9.53c-35.26,8.85-53.32,28.99-53.32,60.36,0,33.91,7.37,46.66,17.49,46.66,8.35,0,14.2-8.25,14.2-27.48Z"/>
  </g>
  <g>
    <g>
      <path class="cls-1" d="M985.41,519.61h-24.89c-3,0-5.34-2.2-5.01-4.72l6.64-50.58c.33-2.52-2-4.72-5.01-4.72h-8.55c-2.78,0-5.04-1.9-5.04-4.25v-63.9c0-2.35-2.25-4.25-5.04-4.25h-10.12c-2.78,0-5.04,1.9-5.04,4.25v63.9c0,2.35-2.25,4.25-5.04,4.25h-8.55c-3,0-5.34,2.2-5.01,4.72l6.64,50.58c.33,2.52-2,4.72-5.01,4.72h-24.89c-3.06,0-5.41,2.28-4.99,4.84l15.45,92.61c.35,2.1,2.48,3.66,4.99,3.66h72.97c2.51,0,4.64-1.56,4.99-3.66l15.45-92.61c.43-2.56-1.93-4.84-4.99-4.84Z"/>
      <path class="cls-1" d="M959.16,638.09c7.76-.17,19.13-.72,34.08-1.65,2.92-.18,5.41,1.77,5.41,4.24v47.87c0,2.35-2.25,4.25-5.04,4.25h-120.28c-2.78,0-5.04-1.9-5.04-4.25v-47.86c0-2.48,2.5-4.42,5.43-4.24,14.55.92,25.83,1.47,33.84,1.64h51.6Z"/>
    </g>
    <rect class="cls-2" x="728.27" y="563.52" width=".1" height="18.26"/>
    <path class="cls-1" d="M629.68,676c-1.22-1.22-2.8-1.83-4.75-1.83h-.36c-2.68,0-4.75-.61-6.21-1.83-1.46-1.21-2.68-3.65-3.65-7.3l-63.83-206.93-1.46-4.72-2.64-8.56c-.49-1.7-1.16-2.86-2.01-3.47-.86-.6-2.25-.91-4.2-.91h-40.53c-4.15,0-5.61,2.32-4.38,6.94l10.09,32.95-54.28,181.05c-1.46,4.87-3.17,8.21-5.11,10.04-1.95,1.83-4.63,2.74-8.04,2.74h-4.74c-1.7,0-3.23.61-4.57,1.83-1.34,1.22-2.01,2.8-2.01,4.75v5.48c0,1.71.67,3.23,2.01,4.56,1.34,1.33,2.86,2.01,4.57,2.01,2.92,0,8.27-.25,16.07-.73,7.31-.49,12.54-.73,15.7-.73.19,0,.45,0,.65,0,3.81.02,9.29.25,16.49.7.14,0,.25.01.39.02,7.79.49,13.63.73,17.53.73,1.95,0,3.53-.67,4.75-2.01,1.21-1.34,1.82-2.86,1.82-4.56v-5.48c0-1.95-.61-3.53-1.82-4.75-1.22-1.22-2.8-1.83-4.75-1.83h-14.97c-5.35,0-8.76-1.22-10.22-3.65-1.22-2.02-1.27-5.31-.29-9.7l12.97-44.35,6.41-21.91,20.38-69.7,2.31-7.87,8.54,27.88,15.22,49.69h-29.75l-6.41,21.91h42.86l14.32,46.74c1.21,4.14,1.21,7,0,8.58-1.22,1.59-3.78,2.37-7.67,2.37h-6.57c-1.7,0-3.23.61-4.56,1.83-1.34,1.22-2.01,2.8-2.01,4.75v5.48c0,1.71.67,3.23,2.01,4.56,1.33,1.33,2.86,2.01,4.56,2.01,4.87,0,12.42-.25,22.64-.73,9.74-.49,17.17-.73,22.28-.73,2.68,0,7.42.25,14.24.73,7.31.49,13.39.73,18.26.73,1.95,0,3.53-.67,4.75-2.01,1.21-1.34,1.83-2.86,1.83-4.56v-5.48c0-1.95-.61-3.53-1.83-4.75Z"/>
    <g>
      <g>
        <path class="cls-4" d="M1124.58,470.2c-.23-.44-.47-.87-.7-1.32.21.43.45.87.7,1.32Z"/>
        <path class="cls-4" d="M1236.76,511.98c-10.57-24.52-26.6-43.6-49.6-55.76-14.92-7.51-30.86-12.19-48.93-13.36-3.34-.33-6.99-.03-9.51.28-2.84.36-4.97,1.3-1.31.97,3.02.2,6.34.39,9.54.77,17.59.84,35.54,7.32,51.08,15.94,5.46,3.37,11.36,7.16,16.87,11.54,2.22,1.99,6.94,6.18,7.98,8.55-14.62-15.21-33.68-25.88-53.99-30.61,1.06.5,1.9,1.07,3.51,1.35-.46.18-.94.4-.94.4,0-.03,2,.67,3.98,1.35-2.87-.53-12.99-3.13-9.4-1.86,8.82,2.71,17.46,5.91,25.85,10.1l4,2.58-1.71-1.4c1.5.74,2.96,1.61,4.44,2.45,1.38.92,2.73,1.87,4.06,2.85,3.33,3.29,6.07,6.4,9.52,10.35-19.45-16.82-45.08-26.58-72.8-25.48-.54.03-1.05.06-1.57.09-.09,0-.17.02-.28.03-15.89,1.46,1.72,25.56,8.21,34.75-4.45-5.28-10.31-11.93-13.32-17.32,7.18,13.56,15.48,20.84,18.5,28.05,4.03,6.36,7.33,13.73,9.99,21.11,1.97,6.06,3.59,12.34,4.81,18.74-1.65-6.89-4.26-15.48-8.61-25.65-2.9-6.21-6.23-13.15-11.02-20.17-4.79-6.81-11.44-14.12-16.38-24.26.48,2.27,7.01,13.52,14.12,22.95,6.33,9.51,10.41,20.44,10.54,21.16-.25.65-6.15-15.25-17.17-28.98-4.92-7.66-10.32-14.85-10.91-24.27-.02-2.48.8-5.23,2.59-7.28,1.61-1.65,3.77-2.89,4.92-3.09,2.7-.72,3.84-.87,3.44-.87-.25.42-6.17-1.49-11.06,6.41-2.64,7.73.3,13.35,2.27,18.51,4.58,10.11,11.16,19.01,12.48,21.19,1.26,1.63,2.16,3.47,3.05,3.74,3.85,6.95,6.86,12.75,9.89,20.65,7.84,19.83,13.34,41.79,9,64.55-.32,1.9-.33,6.97-.75,9.26-1.67,8.17-4.71,16.07-9,23.11-3.85,6.91-10.23,13.36-14.83,21.39-2.7,5.02-6.63,9.77-6.58,18.15.29,4.23,2.67,8.32,6.25,10.72,3.42,2.58,8.99,2.52,11,2.25,26.93-1.93,53.73-12.42,74.31-32.13-1.59-.35,5.01-6.7,6.92-9.19,18.26-22.69,26.58-51.45,25.4-77.36-.93-12.85-3.74-24.96-8.85-37.25ZM1192.9,468.28c12.04,8.92,21.94,20.36,29.18,33.18-2.34-3.66-4.9-7.17-7.66-10.5-5.93-8.45-13.28-16.14-21.51-22.67ZM1234.38,587.05c.18-.63.37-1.26.54-1.89.16-.42.35-.84.51-1.26-.33,1.06-.69,2.11-1.05,3.15ZM1238.35,563.45c.18-3.23.2-6.5.08-9.8-.16-3.82-.52-7.58-1.06-11.27-2.23-22.74-11.7-45.11-28.41-62.26,5.09,4.75,9.79,10.09,13.85,16.06,5.74,8.49,10.01,17.68,12.86,27.08,3.49,13.52,4.31,27.01,2.68,40.19Z"/>
      </g>
      <g>
        <path class="cls-4" d="M1111.66,627.46c.98.69,1.99,1.41,3.05,2.16-.99-.82-2.01-1.52-3.05-2.16Z"/>
        <path class="cls-4" d="M1116.7,481.08c-2.2-3.91-7.09-6.21-11.08-5.99-2.68.06-5.47.34-8.22.47-5.48.53-10.96,1.41-16.35,2.86-10.77,2.85-21.22,7.67-30.53,14.55,1.33.55-4.46,5.18-6.38,6.87-16.9,16.56-26.25,39.23-27.23,60.41-.13,10.52,1.33,20.55,4.63,30.93,6.91,20.73,18.98,37.4,37.38,48.31,11.96,6.67,24.83,11.3,39.66,12.74,2.71.27,5.79.23,7.76,0,1.5-.27,4.51-.96,1.16-.92-2.49-.27-5.19-.77-7.79-1.1-14.41-1.11-28.67-7.53-40.97-15.07-4.25-3.03-8.9-6.33-13.21-10.13-1.8-1.62-5.24-5.47-5.97-7.41,11.15,13.05,26.16,22.56,42.52,27.08-.85-.45-1.5-.96-2.78-1.3.4-.19.8-.38.8-.38,0,0-1.58-.66-3.15-1.32,2.31.53,10.41,2.93,7.58,1.71-7.04-2.5-13.83-5.56-20.42-9.24l-3.08-2.32,1.28,1.26c-1.16-.7-2.38-1.34-3.53-2.08-10.52-8.09-18.73-18.6-24.22-30.23,1.66,2.96,3.51,5.8,5.5,8.51,4.17,7.04,9.53,13.57,15.72,19.22-2.57-2.86-4.35-5.84-6.99-9.18,14.78,14.42,35.05,23.23,57.32,23.02.4,0,.81-.03,1.22-.03.06,0,.13,0,.19,0,3.89-.09,7.01-3.29,6.97-7.2-.02-2.11-.96-3.97-2.43-5.27-.68-.42-1.36-.86-2.03-1.29-4.02-2.65-7.78-5.64-11.26-8.94.98.72,2.03,1.46,3.13,2.18,3.34,2.41,6.65,3.78,9.75,5.68-9.28-6.57-14.95-10.9-18.72-15.67-4.1-4.32-7.94-9.6-11.06-15.11-2.4-4.84-4.32-9.96-5.72-15.29,4.06,12.16,12.31,30.47,40.69,48.88-1.63-4.3-10.54-7.34-16.71-14.33-6.67-6.37-11.46-14.06-11.53-14.72-.02-.61,7.2,11.06,17.95,19.13,2.9,2.3,4.71,3.4,8.7,6.05,4.19,3.64,4.88,9.73,3.02,13.65-4.15,8.4-12.19,7.08-10.84,7.4.71.11,5.53.48,9.63-3.68,4.33-3.71,5.54-13.38-.56-18.88-7.97-5.73-12.03-10.2-14.02-12.22-1.4-1.07-2.34-2.21-3.16-2.23-4.05-4.68-7.28-8.58-10.63-14.19-8.7-13.9-14.01-31.49-9.44-49.24.42-1.46.46-5.48.84-7.3,3.48-12.88,11.63-23.84,20.74-33.47,2.93-2.9,6.28-5.48,9.86-7.64.87-.59,1.72-1.03,2.67-1.59,2.62-2.03,2.94-2.94,4-4.89,1.59-3.53,1.32-7.79-.67-11.05ZM1032.67,604.47c-4.03-7.22-7.13-14.81-8.61-22.64-1.83-11.01-1.37-21.72,1.03-31.94-.56,3.96-.84,8.02-.8,12.14.01,1.43.06,2.84.15,4.24-.02,18.35,6.02,37.05,18.59,51.86-3.95-4.01-7.42-8.61-10.36-13.66Z"/>
      </g>
    </g>
    <rect class="cls-1" x="728.22" y="563.43" width=".1" height="18.25"/>
    <g>
      <rect class="cls-2" x="728.27" y="462" width=".1" height="101.52"/>
      <path class="cls-1" d="M760.59,676.18c-1.34-1.33-2.86-2.01-4.57-2.01h-10.59c-.13,0-.24,0-.36,0-6.85-.04-11.36-1.13-13.51-3.28-1.83-1.83-2.88-5.54-3.19-11.1-.06-1.11-.1-2.26-.1-3.51v-194.28h.1v-18.26h-69.85c-1.7,0-3.23.61-4.57,1.83-1.34,1.22-2.01,2.8-2.01,4.75v5.11c0,1.95.67,3.59,2.01,4.93,1.34,1.34,2.86,2.01,4.57,2.01h3.65c5.6,0,9.25,1.04,10.96,3.11,1.7,2.07,2.56,6.39,2.56,12.96v177.85c0,7.55-1.04,12.42-3.11,14.61-2.07,2.19-6.63,3.29-13.69,3.29h-2.19c-1.7,0-3.23.67-4.56,2.01-1.34,1.34-2.01,2.98-2.01,4.93v5.11c0,1.71.67,3.23,2.01,4.56,1.33,1.33,2.86,2.01,4.56,2.01l22.64-.37c10.23-.48,17.77-.73,22.65-.73,5.74,0,14.54.24,26.39.7.21,0,.41.02.63.02l16.07.22,10.95.15c1.95,0,3.53-.67,4.75-2.01,1.21-1.34,1.82-2.86,1.82-4.56v-5.11c0-1.94-.67-3.59-2.01-4.93Z"/>
      <rect class="cls-3" x="728.22" y="461.99" width=".1" height="101.45"/>
      <path class="cls-1" d="M817.44,461.08c-14.96-11.55-34.61-17.33-58.93-17.33h-3.73c-5.39,0-9.77,4.37-9.77,9.77h0c0,4.45,3.19,8.31,7.59,9,6.54,1.03,16.01,3.95,23.07,12.06,7.3,8.39,10.94,20.38,10.94,35.94s-3.95,28.59-11.86,38.32c-5.81,7.16-13.13,11.64-21.9,13.52-4.54.97-7.84,4.91-7.84,9.55h0c0,5.39,4.37,9.77,9.77,9.77h.45c16.29,0,30.84-2.92,43.61-8.76,12.77-5.84,22.81-14.17,30.11-25,7.3-10.82,10.95-23.29,10.95-37.41,0-21.4-7.48-37.89-22.45-49.45Z"/>
    </g>
  </g>
</svg>