<?xml version="1.0" encoding="UTF-8" standalone="no"?>
<!-- Generator: Adobe Illustrator 24.0.0, SVG Export Plug-In . SVG Version: 6.00 Build 0)  -->

<svg
   version="1.1"
   id="Capa_1"
   x="0px"
   y="0px"
   viewBox="0 0 484.51599 85.8"
   xml:space="preserve"
   sodipodi:docname="ioi_logo_horizontal.svg"
   width="484.51599"
   height="85.800003"
   inkscape:version="1.4 (e7c3feb1, 2024-10-09)"
   xmlns:inkscape="http://www.inkscape.org/namespaces/inkscape"
   xmlns:sodipodi="http://sodipodi.sourceforge.net/DTD/sodipodi-0.dtd"
   xmlns="http://www.w3.org/2000/svg"
   xmlns:svg="http://www.w3.org/2000/svg"><defs
   id="defs114" /><sodipodi:namedview
   id="namedview114"
   pagecolor="#ffffff"
   bordercolor="#000000"
   borderopacity="0.25"
   inkscape:showpageshadow="2"
   inkscape:pageopacity="0.0"
   inkscape:pagecheckerboard="0"
   inkscape:deskcolor="#d1d1d1"
   inkscape:zoom="1.2338257"
   inkscape:cx="210.72668"
   inkscape:cy="141.43002"
   inkscape:window-width="1552"
   inkscape:window-height="764"
   inkscape:window-x="0"
   inkscape:window-y="38"
   inkscape:window-maximized="0"
   inkscape:current-layer="Capa_1" />
<style
   type="text/css"
   id="style1">
	.st0{fill:#026734;}
	.st1{fill:#03445C;}
	.st2{fill:#645C2C;}
	.st3{fill:#A24635;}
	.st4{fill:#F8EBD1;}
	.st5{fill:#EB6435;}
	.st6{fill:none;}
	.st7{fill:#F5EB65;}
	.st8{fill:#FFFFFF;}
	.st9{fill:#BBD036;}
	.st10{fill:#FFD003;}
</style>
<path
   class="st0"
   d="m 8.916,19.3 c -0.1,-0.1 -0.1,-0.1 0,0"
   id="path1" />
<g
   id="g51"
   transform="translate(-63.584,-40.9)">
	<g
   id="g12">
		<path
   class="st1"
   d="m 231.3,94.4 c 0,4.1 -1.9,7.1 -5.6,9.1 -1.8,1 -4.4,1.6 -7.7,1.8 -0.9,0 -3.6,0.1 -8.2,0.1 h -7.3 c -0.7,0 -1,-0.2 -1,-0.5 0,-0.3 0.6,-0.5 1.9,-0.5 1.4,0 2.3,-0.2 2.6,-0.4 0.3,-0.3 0.4,-1.2 0.4,-2.7 V 68.7 c 0,-1.8 -0.1,-2.8 -0.2,-3.1 -0.3,-0.5 -1.3,-0.7 -3.1,-0.8 -1.1,0 -1.6,-0.2 -1.6,-0.6 0,-0.4 0.5,-0.6 1.5,-0.6 0,0 0.3,0 0.7,0 0.4,0.1 0.8,0.2 1.2,0.2 h 11.7 c 4.3,0 7.5,0.8 9.7,2.2 2.5,1.6 3.7,4 3.7,7.1 0,2.7 -1,5 -3.1,6.7 -2,1.7 -4.9,2.8 -8.6,3.3 v 0.4 c 3.6,0.2 6.5,1 8.5,2.3 3,1.9 4.5,4.8 4.5,8.6 z m -8,-20.7 c 0,-3.8 -0.9,-6.4 -2.6,-7.7 -0.9,-0.7 -2.7,-1 -5.2,-1 -0.7,0 -1.7,0.1 -3.2,0.2 v 17.4 h 0.5 l 3.3,-0.1 c 2.3,-0.1 4.1,-0.9 5.3,-2.4 1.3,-1.6 1.9,-3.7 1.9,-6.4 z m 1.7,20.1 c 0,-5 -2,-8.2 -6.1,-9.4 -1.2,-0.4 -3.4,-0.5 -6.7,-0.5 v 17.9 c 0,1.2 0.1,1.8 0.4,2 0.4,0.3 1.5,0.4 3.4,0.4 2.8,0 5,-0.9 6.6,-2.6 1.6,-1.8 2.4,-4.4 2.4,-7.8 z"
   id="path2" />
		<path
   class="st1"
   d="m 274.8,84.8 c 0,6 -1.8,11 -5.4,15.1 -3.6,4.1 -8,6.2 -13.2,6.2 -5.5,0 -10.2,-2.1 -13.9,-6.3 -3.8,-4.2 -5.6,-9.3 -5.6,-15.5 0,-6.2 1.8,-11.4 5.4,-15.3 3.6,-4 8.3,-6 13.9,-6 5.3,0 9.8,2.1 13.4,6.2 3.6,4.2 5.4,9.4 5.4,15.6 z m -6.7,0.3 c 0,-7.3 -1.5,-13.1 -4.5,-17.2 -1.9,-2.6 -4.5,-3.9 -7.9,-3.9 -3.2,0 -5.7,1 -7.4,3 -3.2,3.6 -4.9,9.5 -4.9,17.6 0,6.5 1.1,11.5 3.4,15.1 2.3,3.6 5.4,5.4 9.5,5.4 3.8,0 6.7,-1.7 8.6,-5.1 2.1,-3.7 3.2,-8.7 3.2,-14.9 z"
   id="path3" />
		<path
   class="st1"
   d="m 312.1,100.6 c 0,1 -0.1,2.8 -0.2,5.2 h -0.7 c -0.2,0 -0.8,0 -1.7,-0.1 -0.9,-0.1 -2,-0.1 -3.1,-0.1 l -24.9,-0.2 c -0.7,0 -1,-0.2 -1,-0.5 0,-0.3 0.5,-0.5 1.6,-0.5 1.5,-0.1 2.4,-0.2 2.7,-0.5 0.3,-0.3 0.5,-1 0.5,-2.3 V 67.8 c 0,-1.5 -0.2,-2.3 -0.5,-2.6 -0.3,-0.2 -1.4,-0.4 -3.2,-0.4 -0.8,0 -1.1,-0.2 -1.1,-0.7 0,-0.4 0.2,-0.5 0.7,-0.5 h 0.5 c 1.3,0.1 3.9,0.2 7.9,0.2 0.4,0 1.1,0 2.1,-0.1 1,-0.1 1.9,-0.1 2.6,-0.1 h 0.7 c 0.7,0 1.1,0.2 1.1,0.6 0,0.2 -0.1,0.4 -0.3,0.5 -0.2,0.1 -0.9,0.1 -2.1,0.2 -1.2,0 -1.9,0.2 -2.1,0.6 -0.2,0.3 -0.3,1.4 -0.3,3.2 V 104 c 1.1,0 2.6,0.1 4.5,0.1 4.7,0 8,-0.2 9.9,-0.7 1.9,-0.5 3.2,-1.4 3.9,-2.7 0.7,-1.3 1.1,-3.1 1.2,-5.3 0,-0.5 0.3,-0.8 0.7,-0.8 0.5,0 0.7,0.3 0.7,0.9 V 97 c 0,0.1 0,0.3 0,0.5 0,0.2 0,0.6 0,0.8 v 2.3 z"
   id="path4" />
		<path
   class="st1"
   d="m 331.5,104.9 c 0,0.3 -0.2,0.5 -0.7,0.5 h -0.6 c -0.2,-0.1 -3,-0.2 -8.2,-0.2 -1,0 -2,0 -3,0.1 -0.5,0 -1.3,0.1 -2.4,0.1 -0.5,0 -0.8,-0.2 -0.8,-0.5 0,-0.3 0.5,-0.5 1.6,-0.5 1.6,0 2.5,-0.2 2.8,-0.6 0.3,-0.3 0.4,-1.5 0.4,-3.5 V 68.6 c 0,-2 -0.1,-3.1 -0.3,-3.3 -0.2,-0.4 -1.4,-0.6 -3.3,-0.7 -0.8,0 -1.2,-0.2 -1.2,-0.4 0,-0.3 0.2,-0.5 0.7,-0.5 h 8.2 c 0.6,0 1.8,0 3.5,0.1 l 2.3,-0.1 c 0.6,0 1,0.2 1,0.5 0,0.3 -0.9,0.5 -2.7,0.6 -1,0 -1.7,0.2 -1.9,0.5 -0.2,0.3 -0.3,1.2 -0.3,2.5 v 32.1 c 0,2.3 0.1,3.5 0.3,3.7 0.4,0.4 1.8,0.7 4,0.8 0.4,-0.1 0.6,0.1 0.6,0.5 z"
   id="path5" />
		<path
   class="st1"
   d="m 373.8,64 c 0,0.3 -0.4,0.5 -1.1,0.5 -1.8,0 -2.9,0.3 -3.5,0.8 -0.6,0.5 -1.2,1.6 -1.9,3.4 l -2,5.6 c -4.9,13.5 -8.4,23.9 -10.4,31.1 -0.1,0.5 -0.3,0.7 -0.6,0.7 -0.3,0 -1,-1.5 -2,-4.5 -1.8,-5.5 -3.2,-9.6 -4.2,-12.4 -1.1,-3 -2.7,-7.6 -4.8,-13.6 l -2.9,-8.1 c -0.4,-1.1 -0.8,-1.9 -1.3,-2.3 -0.5,-0.4 -1.3,-0.6 -2.4,-0.6 -1.3,0 -2.1,-0.1 -2.4,-0.1 -0.3,0 -0.4,-0.2 -0.4,-0.5 0,-0.4 0.4,-0.5 1.2,-0.5 h 0.5 c 0.7,0 2,0 3.8,0.1 1.8,0.1 3.1,0.1 3.8,0.1 0.2,0 1,0 2.3,-0.1 1.3,-0.1 3.3,-0.1 5.7,-0.1 h 0.8 c 0.7,0 1.1,0.2 1.1,0.5 0,0.4 -0.7,0.6 -2.2,0.7 l -3.7,0.1 c -0.8,0 -1.3,0.3 -1.3,0.8 0,0.1 0,0.3 0.1,0.5 l 0.4,1.6 c 0.1,0.3 2,6 5.9,16.9 0.6,1.9 1.9,5.5 3.7,10.8 6.6,-18.7 9.9,-28.6 9.9,-29.5 0,-0.9 -1,-1.3 -2.9,-1.3 h -1.9 c -0.5,0 -0.7,-0.2 -0.7,-0.5 0,-0.4 0.6,-0.7 1.8,-0.7 0.2,0 0.9,0 2,0 1.1,0.1 1.9,0.2 2.5,0.2 h 1.9 l 4,-0.2 c 0.9,0.1 1.2,0.3 1.2,0.6 z"
   id="path6" />
		<path
   class="st1"
   d="m 391.4,104.9 c 0,0.3 -0.2,0.5 -0.7,0.5 h -0.6 c -0.2,-0.1 -3,-0.2 -8.2,-0.2 -1,0 -2,0 -3,0.1 -0.5,0 -1.3,0.1 -2.4,0.1 -0.5,0 -0.8,-0.2 -0.8,-0.5 0,-0.3 0.5,-0.5 1.6,-0.5 1.6,0 2.5,-0.2 2.8,-0.6 0.3,-0.3 0.4,-1.5 0.4,-3.5 V 68.6 c 0,-2 -0.1,-3.1 -0.3,-3.3 -0.2,-0.4 -1.4,-0.6 -3.3,-0.7 -0.8,0 -1.2,-0.2 -1.2,-0.4 0,-0.3 0.2,-0.5 0.7,-0.5 h 8.2 c 0.6,0 1.8,0 3.5,0.1 l 2.3,-0.1 c 0.6,0 1,0.2 1,0.5 0,0.3 -0.9,0.5 -2.7,0.6 -1,0 -1.7,0.2 -1.9,0.5 -0.2,0.3 -0.3,1.2 -0.3,2.5 v 32.1 c 0,2.3 0.1,3.5 0.3,3.7 0.4,0.4 1.8,0.7 4,0.8 0.4,-0.1 0.6,0.1 0.6,0.5 z"
   id="path7" />
		<path
   class="st1"
   d="m 433.3,105 c 0,0.3 -0.3,0.5 -0.9,0.5 -0.4,0 -0.8,0 -1.1,-0.1 l -7.6,-0.2 -7.6,0.2 c -0.3,0 -0.6,0.1 -0.9,0.1 -0.8,0 -1.2,-0.2 -1.2,-0.6 0,-0.5 0.5,-0.7 1.6,-0.7 3.5,0 5.3,-0.4 5.3,-1.1 0,0 0,-0.2 -0.1,-0.5 l -0.5,-1.6 -0.3,-0.8 c -0.4,-1.2 -1.2,-4 -2.6,-8.2 h -12.8 c -2.4,6.4 -3.6,10.1 -3.6,11 0,0.6 0.2,0.9 0.7,1 0.1,0 1.1,0.1 3,0.2 1.2,0 1.7,0.2 1.7,0.6 0,0.4 -0.5,0.6 -1.6,0.6 -1.8,0 -4,-0.1 -6.4,-0.2 -0.6,0 -1.2,-0.1 -1.9,-0.1 -0.6,0 -1.3,0.1 -1.9,0.2 -0.3,0.1 -0.6,0.1 -0.8,0.1 -0.6,0 -0.8,-0.2 -0.8,-0.5 0,-0.4 0.6,-0.6 1.9,-0.6 1.3,0 2.2,-0.2 2.7,-0.6 0.6,-0.3 1,-1 1.3,-2 5.1,-14.8 9.3,-26.7 12.6,-35.6 0.1,-0.5 0.3,-1 0.6,-1.6 l 0.3,-1.1 c 0.1,-0.4 0.3,-0.7 0.5,-0.7 0.1,0 0.2,0.1 0.3,0.4 0.5,1.6 1.7,4.8 3.5,9.8 1.4,3.9 5,13.6 10.7,29.2 0.3,0.9 0.7,1.5 1.2,1.7 0.5,0.2 1.5,0.4 3.1,0.4 1,0.2 1.6,0.4 1.6,0.8 z M 416.9,90.6 c -0.7,-1.8 -1.7,-4.8 -3.2,-8.9 l -2.9,-8.3 c -1.7,4.4 -3.7,10.2 -6,17.3 h 12.1 z"
   id="path8" />
		<path
   class="st1"
   d="m 458.8,95.1 c 0,1.1 -0.2,2.8 -0.5,5.1 -0.4,2.3 -0.5,4 -0.5,5.2 -1.4,0 -4.1,-0.1 -8,-0.2 -2,-0.1 -3.4,-0.1 -4.3,-0.1 -5.2,0 -9.1,0.1 -11.5,0.4 h -0.4 c -0.5,0 -0.8,-0.2 -0.8,-0.5 0,-0.3 2.5,-1.8 7.6,-4.4 3,-1.5 5.4,-3.5 7.3,-5.9 1.8,-2.4 2.8,-4.8 2.8,-7.2 0,-2.2 -0.7,-3.9 -2,-5.3 -1.3,-1.3 -3,-2 -5.2,-2 -2,0 -3.6,0.5 -4.8,1.6 -1.2,1 -1.9,2 -1.9,3 0,0.4 0.1,0.7 0.3,0.8 0.2,0.1 0.9,0.3 2.2,0.6 1.3,0.3 1.9,1 1.9,2 0,0.7 -0.3,1.3 -0.8,1.8 -0.5,0.5 -1.1,0.7 -1.8,0.7 -1,0 -1.9,-0.4 -2.6,-1.3 -0.7,-0.9 -1.1,-1.9 -1.1,-3.1 0,-2.2 1,-4.1 3,-5.6 2,-1.5 4.4,-2.3 7.3,-2.3 3.3,0 5.9,0.9 7.9,2.8 2,1.8 2.9,3.9 2.9,6.3 0,3.2 -2,6.2 -6.1,8.9 -0.8,0.5 -2.2,1.3 -4.3,2.4 -2,1.1 -3.4,1.8 -4,2 -0.3,0.1 -0.5,0.2 -0.5,0.2 0,0.1 0.4,0.1 1.1,0.2 3.7,0.1 6.9,0.1 9.7,0.1 2.3,0 3.7,-0.3 4.3,-0.8 0.5,-0.5 1,-2 1.4,-4.4 0.1,-0.8 0.2,-1.3 0.3,-1.5 0.1,-0.2 0.3,-0.3 0.6,-0.3 0.3,0.1 0.5,0.3 0.5,0.8 z"
   id="path9" />
		<path
   class="st1"
   d="m 491.9,92.8 c 0,4.2 -1.9,7.6 -5.7,10.3 -2.9,2 -6,3.1 -9.4,3.1 -4,0 -7.4,-1.3 -10.3,-4 -2.9,-2.6 -4.3,-5.8 -4.3,-9.5 0,-2.4 0.7,-4.7 2,-6.8 1.3,-2.1 3.1,-3.8 5.3,-5.1 2.7,-1.5 5.6,-2.3 8.5,-2.3 1.8,0 3.6,0.4 5.5,1.2 1.9,0.8 3.4,1.8 4.6,3 2.5,2.6 3.8,6 3.8,10.1 z m -5.1,-0.6 c 0,-3.7 -0.9,-6.7 -2.7,-8.9 -1.8,-2.3 -4.1,-3.4 -7,-3.4 -2.8,0 -5,1.2 -6.7,3.6 -1.7,2.4 -2.6,5.6 -2.6,9.5 0,4 1.1,7.1 3.4,9.4 1.6,1.6 3.5,2.5 5.5,2.5 3.2,0 5.8,-1.4 7.8,-4.3 1.6,-2.1 2.3,-4.9 2.3,-8.4 z"
   id="path10" />
		<path
   class="st1"
   d="m 520.5,95.1 c 0,1.1 -0.2,2.8 -0.5,5.1 -0.4,2.3 -0.5,4 -0.5,5.2 -1.4,0 -4.1,-0.1 -8,-0.2 -2,-0.1 -3.4,-0.1 -4.3,-0.1 -5.2,0 -9.1,0.1 -11.5,0.4 h -0.4 c -0.5,0 -0.8,-0.2 -0.8,-0.5 0,-0.3 2.5,-1.8 7.6,-4.4 3,-1.5 5.4,-3.5 7.3,-5.9 1.8,-2.4 2.8,-4.8 2.8,-7.2 0,-2.2 -0.7,-3.9 -2,-5.3 -1.3,-1.3 -3,-2 -5.2,-2 -2,0 -3.6,0.5 -4.8,1.6 -1.2,1 -1.9,2 -1.9,3 0,0.4 0.1,0.7 0.3,0.8 0.2,0.1 0.9,0.3 2.2,0.6 1.3,0.3 1.9,1 1.9,2 0,0.7 -0.3,1.3 -0.8,1.8 -0.5,0.5 -1.1,0.7 -1.8,0.7 -1,0 -1.9,-0.4 -2.6,-1.3 -0.7,-0.9 -1.1,-1.9 -1.1,-3.1 0,-2.2 1,-4.1 3,-5.6 2,-1.5 4.4,-2.3 7.3,-2.3 3.3,0 5.9,0.9 7.9,2.8 2,1.8 2.9,3.9 2.9,6.3 0,3.2 -2,6.2 -6.1,8.9 -0.8,0.5 -2.2,1.3 -4.3,2.4 -2,1.1 -3.4,1.8 -4,2 -0.3,0.1 -0.5,0.2 -0.5,0.2 0,0.1 0.4,0.1 1.1,0.2 3.7,0.1 6.9,0.1 9.7,0.1 2.3,0 3.7,-0.3 4.3,-0.8 0.5,-0.5 1,-2 1.4,-4.4 0.1,-0.8 0.2,-1.3 0.3,-1.5 0.1,-0.2 0.3,-0.3 0.6,-0.3 0.3,0.1 0.5,0.3 0.5,0.8 z"
   id="path11" />
		<path
   class="st1"
   d="m 548.1,105.5 c 0,4.3 -1.9,7.8 -5.6,10.4 -2.9,2 -6.1,3.1 -9.5,3.1 -2.3,0 -4.3,-0.6 -6,-1.7 -1.7,-1.1 -2.5,-2.5 -2.5,-4.1 0,-0.9 0.3,-1.7 1,-2.3 0.6,-0.6 1.4,-0.9 2.4,-0.9 0.8,0 1.5,0.2 2.1,0.8 0.5,0.5 0.8,1.2 0.8,2 0,0.6 -0.1,1.1 -0.4,1.4 -0.2,0.3 -0.9,0.8 -1.9,1.5 -0.2,0.1 -0.4,0.3 -0.4,0.5 0,0.4 0.5,0.8 1.4,1.1 1,0.4 2,0.5 3.1,0.5 2.9,0 5.3,-1.1 7.1,-3.2 1.8,-2.1 2.7,-5 2.7,-8.4 0,-3.1 -0.8,-5.7 -2.5,-7.7 -1.7,-2.1 -3.8,-3.1 -6.2,-3.1 -1.9,0 -4.1,0.9 -6.5,2.6 l 0.1,-1.7 c 0,-0.4 0.1,-4.1 0.3,-11.2 0.1,-2.9 0.3,-4.6 0.7,-5.2 0.4,-0.5 1.6,-0.8 3.8,-0.8 2.1,0 4.2,0 6.2,0.1 1,0 2.1,0.1 3.2,0.1 0.8,0 1.3,-0.1 1.5,-0.4 0.3,-0.2 0.5,-0.8 0.6,-1.6 0.1,-0.6 0.3,-0.8 0.7,-0.8 0.4,0 0.5,0.3 0.5,0.8 0,0.5 0,0.9 -0.1,1.2 v 1.8 c 0,1.6 -0.3,2.6 -0.8,3.2 -0.5,0.6 -1.4,0.9 -2.7,0.9 -1.6,0 -3.4,-0.1 -5.3,-0.2 H 533 c -0.6,0 -1.9,0 -3.8,0.1 V 85 l -0.2,2.4 c 0,0.6 -0.1,3.3 -0.2,8.3 2.5,-1.3 5,-2 7.4,-2 3.5,0 6.4,1.1 8.7,3.4 2.1,2.1 3.2,4.9 3.2,8.4 z"
   id="path12" />
	</g>
	<g
   id="g50">
		<path
   class="st1"
   d="m 208.3,117.7 c 1.6,0 2,-0.6 2,-1.3 0,-1 -0.4,-1.5 -1.3,-1.5 -0.7,0 -1.3,0.6 -1.3,1.6 H 206 c 0,-1.9 1.3,-3.1 3.1,-3.1 1.7,0 3,1.1 3,2.6 0,0.9 -0.4,1.7 -1.1,2.2 0.9,0.4 1.4,1.2 1.4,2.4 0,1.9 -1.4,3.1 -3.4,3.1 -2,0 -3.2,-1.2 -3.2,-3.2 h 1.8 c 0,1.1 0.5,1.6 1.4,1.6 0.8,0 1.4,-0.6 1.4,-1.6 0,-1.1 -0.6,-1.5 -2.2,-1.5 v -1.3 z"
   id="path13" />
		<path
   class="st1"
   d="m 214.1,123.4 c 0.2,-2.8 1.4,-5.7 3.4,-8 h -4.7 v -1.7 h 6.8 v 1.5 c -2.2,2.4 -3.4,5.3 -3.5,8.3 h -2 z"
   id="path14" />
		<path
   class="st1"
   d="m 221.8,118.5 v -4.7 h -1.7 v -1 h 4.6 v 1 H 223 v 4.7 z"
   id="path15" />
		<path
   class="st1"
   d="M 228.6,118.5 V 116 h -2.2 v 2.5 h -1.2 v -5.7 h 1.2 v 2.1 h 2.2 v -2.1 h 1.2 v 5.7 z"
   id="path16" />
		<path
   class="st1"
   d="m 234.5,123.4 v -9.7 h 2 v 9.7 z"
   id="path17" />
		<path
   class="st1"
   d="m 243.9,123.4 -4.2,-6.5 v 6.5 h -1.9 v -9.7 h 2.2 l 3.9,6.2 v -6.2 h 1.9 v 9.7 z"
   id="path18" />
		<path
   class="st1"
   d="m 249.7,123.4 v -8 h -2.9 v -1.7 h 7.9 v 1.7 h -2.9 v 8 z"
   id="path19" />
		<path
   class="st1"
   d="m 255.8,123.4 v -9.7 h 7.1 v 1.7 h -5.2 v 2.1 h 4.8 v 1.7 h -4.8 v 2.5 h 5.4 v 1.7 z"
   id="path20" />
		<path
   class="st1"
   d="m 269.8,123.4 v -2.5 c 0,-0.9 -0.4,-1.3 -1.5,-1.3 h -2.2 v 3.8 h -2 v -9.7 h 4.9 c 1.8,0 3,1.2 3,2.8 0,1 -0.5,1.9 -1.4,2.3 0.9,0.3 1.2,0.8 1.2,1.9 v 2.8 h -2 z m -3.7,-8.1 v 2.6 h 2.5 c 1.1,0 1.5,-0.5 1.5,-1.3 0,-0.8 -0.4,-1.3 -1.4,-1.3 z"
   id="path21" />
		<path
   class="st1"
   d="m 279.3,123.4 -4.2,-6.5 v 6.5 h -1.9 v -9.7 h 2.2 l 3.9,6.2 v -6.2 h 1.9 v 9.7 z"
   id="path22" />
		<path
   class="st1"
   d="m 289.2,123.4 -0.6,-2 H 285 l -0.7,2 h -2.2 l 3.5,-9.7 h 2.4 l 3.4,9.7 z m -2.4,-7.6 v 0 l -1.3,3.9 h 2.5 z"
   id="path23" />
		<path
   class="st1"
   d="m 292.6,123.4 v -8 h -2.9 v -1.7 h 7.9 v 1.7 h -2.9 v 8 z"
   id="path24" />
		<path
   class="st1"
   d="m 298.7,123.4 v -9.7 h 2 v 9.7 z"
   id="path25" />
		<path
   class="st1"
   d="m 301.9,118.6 c 0,-3.3 1.7,-5.3 4.7,-5.3 3,0 4.6,2 4.6,5.3 0,3.3 -1.7,5.1 -4.6,5.1 -3,0 -4.7,-1.8 -4.7,-5.1 z m 7.3,0 c 0,-2.3 -0.9,-3.5 -2.6,-3.5 -1.7,0 -2.7,1.2 -2.7,3.5 0,2.3 1,3.3 2.7,3.3 1.4,0.1 2.6,-1 2.6,-3.3 z"
   id="path26" />
		<path
   class="st1"
   d="m 318.4,123.4 -4.2,-6.5 v 6.5 h -1.9 v -9.7 h 2.2 l 3.9,6.2 v -6.2 h 1.9 v 9.7 z"
   id="path27" />
		<path
   class="st1"
   d="m 328.4,123.4 -0.6,-2 h -3.6 l -0.7,2 h -2.2 l 3.5,-9.7 h 2.4 l 3.4,9.7 z m -2.4,-7.6 v 0 l -1.3,3.9 h 2.5 z"
   id="path28" />
		<path
   class="st1"
   d="m 331.6,123.4 v -9.7 h 2 v 7.9 h 4.8 v 1.8 z"
   id="path29" />
		<path
   class="st1"
   d="m 343.6,118.6 c 0,-3.3 1.7,-5.3 4.7,-5.3 3,0 4.6,2 4.6,5.3 0,3.3 -1.7,5.1 -4.6,5.1 -3.1,0 -4.7,-1.8 -4.7,-5.1 z m 7.3,0 c 0,-2.3 -0.9,-3.5 -2.6,-3.5 -1.7,0 -2.7,1.2 -2.7,3.5 0,2.3 1,3.3 2.7,3.3 1.4,0.1 2.6,-1 2.6,-3.3 z"
   id="path30" />
		<path
   class="st1"
   d="m 354.1,123.4 v -9.7 h 2 v 7.9 h 4.8 v 1.8 z"
   id="path31" />
		<path
   class="st1"
   d="m 362.4,123.4 v -3.7 l -3.4,-6 h 2.4 l 2,4 1.9,-4 h 2.3 l -3.2,6.1 v 3.6 z"
   id="path32" />
		<path
   class="st1"
   d="m 376.3,123.4 v -6.7 l -1.8,6.7 h -2 l -1.8,-6.6 v 6.6 h -1.9 v -9.7 h 3 l 1.8,7.1 1.8,-7.1 h 2.9 v 9.7 z"
   id="path33" />
		<path
   class="st1"
   d="m 379.5,123.4 v -9.7 h 4.3 c 1.9,0 3.1,1.4 3.1,3.1 0,1.8 -1.2,3 -3.1,3 h -2.3 v 3.5 h -2 z m 4,-5.2 c 1.2,0 1.7,-0.6 1.7,-1.4 0,-0.8 -0.5,-1.4 -1.7,-1.4 h -1.9 v 2.9 h 1.9 z"
   id="path34" />
		<path
   class="st1"
   d="m 387.9,123.4 v -9.7 h 2 v 9.7 z"
   id="path35" />
		<path
   class="st1"
   d="m 398,123.4 -0.6,-2 h -3.6 l -0.7,2 h -2.2 l 3.5,-9.7 h 2.4 l 3.4,9.7 z m -2.4,-7.6 v 0 l -1.3,3.9 h 2.5 z"
   id="path36" />
		<path
   class="st1"
   d="m 401.2,123.4 v -9.7 h 3.8 c 2.6,0 4.5,1.8 4.5,4.8 0,3 -1.7,5 -4.2,5 h -4.1 z m 3.7,-1.7 c 1.8,0 2.5,-1.1 2.5,-3.3 0,-2.2 -0.8,-3.1 -2.7,-3.1 h -1.5 v 6.4 z"
   id="path37" />
		<path
   class="st1"
   d="m 414.8,123.4 v -9.7 h 2 v 9.7 z"
   id="path38" />
		<path
   class="st1"
   d="m 424.2,123.4 -4.2,-6.5 v 6.5 h -1.9 v -9.7 h 2.2 l 3.9,6.2 v -6.2 h 1.9 v 9.7 z"
   id="path39" />
		<path
   class="st1"
   d="m 431.5,123.4 v -9.7 h 2 v 9.7 z"
   id="path40" />
		<path
   class="st1"
   d="m 440.9,123.4 -4.2,-6.5 v 6.5 h -1.9 v -9.7 h 2.2 l 3.9,6.2 v -6.2 h 1.9 v 9.7 z"
   id="path41" />
		<path
   class="st1"
   d="m 446.1,119.3 v 4.1 h -2 v -9.7 h 6.9 v 1.7 h -4.9 v 2.2 h 4.3 v 1.7 z"
   id="path42" />
		<path
   class="st1"
   d="m 451.5,118.6 c 0,-3.3 1.7,-5.3 4.7,-5.3 3,0 4.6,2 4.6,5.3 0,3.3 -1.7,5.1 -4.6,5.1 -2.9,0 -4.7,-1.8 -4.7,-5.1 z m 7.3,0 c 0,-2.3 -0.9,-3.5 -2.6,-3.5 -1.7,0 -2.7,1.2 -2.7,3.5 0,2.3 1,3.3 2.7,3.3 1.4,0.1 2.6,-1 2.6,-3.3 z"
   id="path43" />
		<path
   class="st1"
   d="m 467.6,123.4 v -2.5 c 0,-0.9 -0.4,-1.3 -1.5,-1.3 H 464 v 3.8 h -2 v -9.7 h 4.9 c 1.8,0 3,1.2 3,2.8 0,1 -0.5,1.9 -1.4,2.3 0.9,0.3 1.2,0.8 1.2,1.9 v 2.8 h -2.1 z m -3.6,-8.1 v 2.6 h 2.5 c 1.1,0 1.5,-0.5 1.5,-1.3 0,-0.8 -0.4,-1.3 -1.4,-1.3 z"
   id="path44" />
		<path
   class="st1"
   d="m 478.6,123.4 v -6.7 l -1.8,6.7 h -2 l -1.8,-6.6 v 6.6 h -2 v -9.7 h 3 l 1.8,7.1 1.8,-7.1 h 2.9 v 9.7 z"
   id="path45" />
		<path
   class="st1"
   d="m 488.5,123.4 -0.6,-2 h -3.6 l -0.7,2 h -2.2 l 3.5,-9.7 h 2.4 l 3.4,9.7 z m -2.4,-7.6 v 0 l -1.3,3.9 h 2.5 z"
   id="path46" />
		<path
   class="st1"
   d="m 492,123.4 v -8 h -3 v -1.7 h 7.9 v 1.7 H 494 v 8 z"
   id="path47" />
		<path
   class="st1"
   d="m 498,123.4 v -9.7 h 2 v 9.7 z"
   id="path48" />
		<path
   class="st1"
   d="m 509.9,120 c -0.4,2.2 -1.9,3.7 -4.2,3.7 -2.5,0 -4.5,-1.7 -4.5,-5.1 0,-3.3 1.7,-5.3 4.5,-5.3 2.4,0 4,1.6 4.2,3.5 h -2 c -0.3,-1.1 -1.1,-1.8 -2.1,-1.8 -1.7,0 -2.5,1.3 -2.5,3.4 0,2.2 0.8,3.4 2.4,3.4 1.2,0 1.9,-0.7 2.2,-1.9 h 2 z"
   id="path49" />
		<path
   class="st1"
   d="m 516.4,116.5 c -0.1,-1 -0.7,-1.5 -1.9,-1.5 -1.1,0 -1.7,0.4 -1.7,1.1 0,0.6 0.4,1 1.5,1.2 1.1,0.3 2.2,0.5 2.9,0.8 0.8,0.4 1.5,1 1.5,2.4 0,2.1 -1.6,3.1 -3.9,3.1 -2.4,0 -4.1,-1.1 -4.1,-3.2 h 2 c 0,1 0.9,1.6 2.2,1.6 1.2,0 1.9,-0.5 1.9,-1.4 0,-0.6 -0.3,-1 -1.5,-1.2 -1.2,-0.3 -2,-0.4 -2.7,-0.7 -1,-0.5 -1.6,-1.2 -1.6,-2.4 0,-1.7 1.2,-3 3.6,-3 2.5,0 3.8,1.3 3.9,3.2 z"
   id="path50" />
	</g>
</g>
<g
   id="g114"
   transform="translate(-63.584,-40.9)">
	<path
   class="st0"
   d="m 91.1,64.6 c 0,0 0,0 0,0 0,0 0,0 0,0 0,0 0,0 0,0"
   id="path51" />
	<g
   id="g85">
		<polygon
   class="st2"
   points="162.5,126.3 162.5,126.3 169.8,116 "
   id="polygon51" />
		<polygon
   class="st2"
   points="170.3,115.3 172.5,112.1 170.3,115.3 "
   id="polygon52" />
		<polygon
   class="st2"
   points="165.9,77.5 165.9,80 169.4,85 170.6,83.3 166.2,77 "
   id="polygon53" />
		<path
   class="st2"
   d="m 167.3,64.3 -1.2,-1.7 0.5,-0.7 1.2,1.7 1.3,-1.9 -1.2,-1.7 0.5,-0.7 1.2,1.7 1.4,-2 -1.2,-1.7 0.5,-0.7 1.2,1.7 1.3,-1.9 -1.2,-1.7 0.5,-0.7 1.2,1.7 V 52.2 H 160 v 3.6 c 1.4,0.4 2.5,0.8 3.2,1.2 0.8,0.4 1.4,1 1.7,1.8 0.4,0.7 0.6,1.7 0.7,2.8 0.1,1.1 0.1,2.6 0.1,4.3 V 66 l 0.1,0.2 z"
   id="path53" />
		<polygon
   class="st2"
   points="165.9,84.6 167.8,87.3 169.1,85.5 165.9,81 "
   id="polygon54" />
		<path
   class="st2"
   d="m 160.1,126.3 h 2.4 l 7.3,-10.3 -0.2,-0.3 -1.2,1.7 -0.5,-0.7 1.2,-1.7 -1.4,-2 -1.2,1.7 -0.5,-0.7 1.2,-1.7 -1.3,-1.8 v 2.4 c 0,1.7 -0.1,3.2 -0.2,4.3 -0.1,1.1 -0.4,2.1 -0.7,2.8 -0.4,0.7 -1,1.3 -1.7,1.7 -0.8,0.4 -1.8,0.8 -3.2,1.2 z"
   id="path54" />
		<polygon
   class="st2"
   points="173.4,89.1 165.9,99.8 165.9,109 170.3,115.3 172.5,112.1 173.4,110.8 "
   id="polygon55" />
		<polygon
   class="st2"
   points="172.2,58.7 165.9,67.7 165.9,75.8 166.2,75.3 171.9,83.3 166.2,91.3 165.9,90.8 165.9,98.3 173.4,87.7 173.4,57.1 172.2,58.7 "
   id="polygon56" />
		<polygon
   class="st2"
   points="165.9,89.1 166.2,89.6 167.4,87.8 165.9,85.6 "
   id="polygon57" />
		<polygon
   class="st2"
   points="172.5,112.1 170.3,115.3 173.4,119.7 173.4,110.8 "
   id="polygon58" />
		<polygon
   class="st2"
   points="171.7,118.7 171.4,118.3 170.2,120 169.7,119.3 170.9,117.6 169.8,116 162.5,126.3 173.4,126.3 173.4,121.2 172.2,122.8 171.7,122.1 172.9,120.4 "
   id="polygon59" />
		<polygon
   class="st2"
   points="173.4,110.8 172.5,112.1 "
   id="polygon60" />
		<path
   class="st3"
   d="m 183.7,58.7 c 0.4,-0.7 0.9,-1.2 1.6,-1.7 0.6,-0.4 1.5,-0.8 2.7,-1.1 V 52.1 H 176.7 L 183,61 c 0.1,-0.9 0.4,-1.7 0.7,-2.3 z"
   id="path60" />
		<polygon
   class="st3"
   points="182.7,92.9 180.4,89.6 179.2,91.4 182.7,96.4 "
   id="polygon61" />
		<polygon
   class="st3"
   points="182.7,97.5 182.7,97.3 178.8,91.8 177.6,93.7 181.5,99.3 "
   id="polygon62" />
		<polygon
   class="st3"
   points="179.9,101.5 181.2,99.7 177.2,94.1 176,95.9 "
   id="polygon63" />
		<path
   class="st3"
   d="m 173.4,55.6 v 0 l 1.2,-1.7 0.5,0.7 -1.2,1.7 1.5,2.1 1.2,-1.7 0.5,0.7 -1.2,1.7 1.3,1.9 1.2,-1.7 0.5,0.7 -1.2,1.7 1.4,2 1.2,-1.7 0.5,0.7 -1.2,1.7 1.3,1.9 1.2,-1.7 0.5,0.7 -1.2,1.7 1.3,1.8 v -3 c 0,-2 0.1,-3.6 0.2,-4.6 0,-0.1 0,-0.1 0,-0.2 l -6.3,-8.9 h -3.3 z"
   id="path63" />
		<polygon
   class="st3"
   points="173.4,57.1 173.4,87.7 182.7,74.4 182.7,70.3 174.6,58.7 173.4,57.1 "
   id="polygon64" />
		<polygon
   class="st3"
   points="174.8,95.9 180.4,87.8 182.7,91.1 182.7,75.8 173.4,89.1 173.4,110.8 179.3,102.4 "
   id="polygon65" />
		<polygon
   class="st3"
   points="181.2,99.7 179.9,101.5 180.4,102.1 181.6,100.4 "
   id="polygon66" />
		<polygon
   class="st3"
   points="173.4,119.7 173.4,119.7 182.7,106.4 182.7,100.6 180.4,103.9 179.3,102.4 173.4,110.8 "
   id="polygon67" />
		<polygon
   class="st3"
   points="182.7,97.5 181.5,99.3 182,99.9 182.7,98.8 "
   id="polygon68" />
		<path
   class="st3"
   d="m 181.3,109.9 1.2,1.7 -0.5,0.7 -1.2,-1.7 -1.3,1.9 1.2,1.7 -0.5,0.7 -1.2,-1.7 -1.3,1.9 1.2,1.7 -0.5,0.7 -1.2,-1.7 -1.3,1.9 1.2,1.7 -0.5,0.7 -1.2,-1.7 -0.2,0.2 -1.2,1.7 1.2,1.7 -0.5,0.7 -1.2,-1.7 v 0 5.1 H 188 v -3.5 c -0.8,-0.2 -1.5,-0.5 -2.1,-0.8 -0.7,-0.3 -1.3,-0.8 -1.7,-1.2 -0.4,-0.5 -0.7,-1.1 -1,-1.7 -0.2,-0.7 -0.4,-1.6 -0.4,-2.7 -0.1,-1.1 -0.1,-2.3 -0.1,-3.5 V 108 l -0.1,-0.1 z"
   id="path68" />
		<polygon
   class="st3"
   points="173.4,110.8 173.4,110.8 179.3,102.4 "
   id="polygon69" />
		<polygon
   class="st3"
   points="179.9,101.5 179.9,101.5 181.2,99.7 "
   id="polygon70" />
		<polygon
   class="st3"
   points="182.7,97.5 181.5,99.3 182.7,97.5 "
   id="polygon71" />
		<polygon
   class="st4"
   points="169.8,116 169.8,116 170.3,115.3 "
   id="polygon72" />
		<polygon
   class="st4"
   points="167.7,113 169,115 167.9,116.7 168.4,117.4 169.6,115.7 169.8,116 170.3,115.3 165.9,109 165.9,110.5 167.1,112.3 166,114 166.5,114.7 "
   id="polygon73" />
		<polygon
   class="st4"
   points="173.4,55.6 172.2,53.9 171.7,54.6 172.9,56.3 171.5,58.2 170.3,56.6 169.8,57.3 171,59 169.7,60.9 168.5,59.2 168,59.9 169.2,61.6 167.8,63.5 166.6,61.8 166.1,62.6 167.3,64.3 166,66.1 165.9,65.9 165.9,67.7 172.2,58.7 173.4,57.1 "
   id="polygon74" />
		<polygon
   class="st4"
   points="165.9,99.8 173.4,89.1 173.4,87.7 165.9,98.3 "
   id="polygon75" />
		<polygon
   class="st4"
   points="169.7,119.3 170.2,120 171.4,118.3 171.7,118.7 172.9,120.4 171.7,122.1 172.2,122.8 173.4,121.2 173.4,119.7 170.3,115.3 169.8,116 170.9,117.6 "
   id="polygon76" />
		<polygon
   class="st4"
   points="182.7,74.4 173.4,87.7 173.4,89.1 182.7,75.8 "
   id="polygon77" />
		<polygon
   class="st4"
   points="180.9,66.3 179.6,64.5 180.8,62.8 180.3,62.1 179.1,63.7 177.7,61.8 178.9,60.1 178.4,59.4 177.2,61.1 175.9,59.1 177.1,57.5 176.6,56.7 175.4,58.4 173.9,56.3 175.1,54.6 174.6,53.9 173.4,55.6 173.4,55.6 173.4,55.6 173.4,57.1 173.4,57.1 174.6,58.7 174.6,58.7 182.7,70.3 182.7,68.9 181.5,67.1 182.6,65.4 182.1,64.7 "
   id="polygon78" />
		<polygon
   class="st4"
   points="173.4,121.2 174.6,122.8 175.1,122.1 173.9,120.4 175.1,118.7 175.3,118.5 176.4,120.2 176.9,119.5 175.8,117.8 177.1,115.9 178.3,117.6 178.8,116.8 177.6,115.1 179,113.2 180.2,114.9 180.7,114.2 179.5,112.5 180.8,110.6 182,112.3 182.5,111.6 181.3,109.9 182.7,108 182.7,108 182.7,106.4 173.4,119.7 173.4,121.2 "
   id="polygon79" />
		<polygon
   class="st4"
   points="165.9,75.8 165.9,77.5 166.2,77 170.6,83.3 169.4,85 165.9,80 165.9,81 169.1,85.5 167.8,87.3 165.9,84.6 165.9,85.6 167.4,87.8 166.2,89.6 165.9,89.1 165.9,90.8 166.2,91.3 171.9,83.3 166.2,75.3 "
   id="polygon80" />
		<polygon
   class="st4"
   points="179.9,101.5 176,95.9 177.2,94.1 181.2,99.7 181.5,99.3 177.6,93.7 178.8,91.8 182.7,97.3 182.7,96.4 179.2,91.4 180.4,89.6 182.7,92.9 182.7,91.1 180.4,87.8 174.8,95.9 179.3,102.4 "
   id="polygon81" />
		<polygon
   class="st4"
   points="181.6,100.4 180.4,102.1 179.9,101.5 179.3,102.4 180.4,103.9 182.7,100.6 182.7,98.8 182,99.9 181.5,99.3 181.2,99.7 "
   id="polygon82" />
		<polygon
   class="st4"
   points="179.3,102.4 179.3,102.4 179.9,101.5 "
   id="polygon83" />
		<polygon
   class="st4"
   points="181.2,99.7 181.2,99.7 181.5,99.3 "
   id="polygon84" />
		<path
   class="st3"
   d="M 188.6,55.7 V 52.1 H 188 v 3.8 c 0.2,-0.1 0.4,-0.1 0.6,-0.2 z"
   id="path84" />
		<path
   class="st3"
   d="M 188.6,126.3 V 123 c -0.2,0 -0.4,-0.1 -0.6,-0.1 v 3.5 h 0.6 z"
   id="path85" />
		<polygon
   class="st5"
   points="162.3,126.6 162.5,126.3 162.3,126.6 "
   id="polygon85" />
	</g>
	<g
   id="g106">
		<path
   class="st5"
   d="m 153,83.6 c 0.1,1.2 1.1,2 2.3,2 1.2,-0.1 2.1,-1.1 2,-2.2 -0.1,-1.2 -1.1,-2 -2.3,-2 -1.1,0.1 -2,1.1 -2,2.2 z"
   id="path86" />
		<path
   class="st5"
   d="m 152.7,79.6 c 0.1,1 0.9,1.7 1.9,1.7 1,-0.1 1.8,-0.9 1.7,-1.9 -0.1,-1 -0.9,-1.7 -1.9,-1.7 -1,0.1 -1.7,0.9 -1.7,1.9 z"
   id="path87" />
		<g
   id="g105">
			<path
   class="st5"
   d="m 151.9,75.6 c 0,0.8 0.7,1.4 1.5,1.3 0.8,0 1.4,-0.7 1.4,-1.5 0,-0.8 -0.7,-1.4 -1.5,-1.3 -0.9,0 -1.5,0.7 -1.4,1.5 z"
   id="path88" />
			<path
   class="st5"
   d="m 151.6,73 c 0.7,0 1.3,-0.6 1.2,-1.3 0,-0.7 -0.7,-1.2 -1.4,-1.2 -0.7,0 -1.3,0.6 -1.2,1.3 0.1,0.7 0.7,1.2 1.4,1.2 z"
   id="path89" />
			<path
   class="st5"
   d="m 149.3,69.1 c 0.5,0 0.9,-0.5 0.9,-1 0,-0.5 -0.5,-0.9 -1,-0.9 -0.5,0 -0.9,0.5 -0.9,1 0,0.5 0.5,0.9 1,0.9 z"
   id="path90" />
			<g
   id="g104">
				<path
   class="st6"
   d="m 152.7,79.6 c 0.1,1 0.9,1.7 1.9,1.7 1,-0.1 1.8,-0.9 1.7,-1.9 -0.1,-1 -0.9,-1.7 -1.9,-1.7 -1,0.1 -1.7,0.9 -1.7,1.9 z"
   id="path91" />
				<path
   class="st6"
   d="m 153,83.6 c 0.1,1.2 1.1,2 2.3,2 1.2,-0.1 2.1,-1.1 2,-2.2 -0.1,-1.2 -1.1,-2 -2.3,-2 -1.1,0.1 -2,1.1 -2,2.2 z"
   id="path92" />
				<path
   class="st6"
   d="m 149.3,69.1 c 0.5,0 0.9,-0.5 0.9,-1 0,-0.5 -0.5,-0.9 -1,-0.9 -0.5,0 -0.9,0.5 -0.9,1 0,0.5 0.5,0.9 1,0.9 z"
   id="path93" />
				<path
   class="st6"
   d="m 151.9,75.6 c 0,0.8 0.7,1.4 1.5,1.3 0.8,0 1.4,-0.7 1.4,-1.5 0,-0.8 -0.7,-1.4 -1.5,-1.3 -0.9,0 -1.5,0.7 -1.4,1.5 z"
   id="path94" />
				<path
   class="st6"
   d="m 151.6,73 c 0.7,0 1.3,-0.6 1.2,-1.3 0,-0.7 -0.7,-1.2 -1.4,-1.2 -0.7,0 -1.3,0.6 -1.2,1.3 0.1,0.7 0.7,1.2 1.4,1.2 z"
   id="path95" />
				<path
   class="st6"
   d="m 114.6,65.9 c -0.7,1.3 -1.3,2.9 -1.8,4.6 -0.1,0.1 -0.1,0.1 -0.2,0.2 -0.5,1.8 -0.9,3.9 -1.2,6.1 0.1,-0.1 0.1,-0.1 0.2,-0.2 -0.5,3.5 -0.8,7.5 -0.8,12.1 0,5 0.3,9.3 0.8,13.1 0,-0.1 -0.1,-0.1 -0.1,-0.2 0.3,2.3 0.8,4.3 1.3,6.2 0,0 0.1,0.1 0.1,0.1 0.5,1.8 1.1,3.3 1.8,4.7 0.6,1.3 1.3,2.4 2.1,3.3 0,0.1 0.1,0.1 0.1,0.2 2.5,2.8 5.7,4.2 9.6,4.2 2.8,0 5.2,-0.7 7.1,-2.2 0.5,-0.3 0.9,-0.7 1.3,-1.1 1.4,-1.3 2.5,-3 3.5,-5.1 0.3,-0.8 0.7,-1.6 0.9,-2.4 0.5,-1.6 1,-3.2 1.3,-5.1 0.1,-0.6 0.2,-1.3 0.3,-2 0.4,-2.5 0.6,-5.1 0.7,-7.9 0.1,-1.3 0.1,-2.7 0.1,-4 0,-5.7 -0.4,-10.7 -1.1,-15 -0.2,-1 -0.4,-1.9 -0.6,-2.8 -0.7,-3.1 -1.7,-5.7 -2.9,-7.8 -0.4,-0.7 -0.9,-1.4 -1.4,-2 -0.3,-0.3 -0.6,-0.7 -0.9,-1 -2.3,-2.4 -5.2,-3.6 -8.8,-3.6 -4.1,0 -7.4,1.5 -9.8,4.5 0.1,0 0.2,-0.1 0.3,-0.1 -0.6,1 -1.3,2 -1.9,3.2 z"
   id="path96" />
				<path
   class="st7"
   d="m 151.1,61.3 c -5.4,-6.1 -13.6,-9.1 -24.4,-9.1 -7,0 -13,1.5 -18,4.4 -5,2.9 -8.9,7.3 -11.4,12.9 -2.6,5.7 -3.9,12.5 -3.9,20.5 0,12.2 2.7,21.3 8,27.4 5.3,6.1 13.4,9.2 24,9.2 5.1,0 9.7,-0.7 13.9,-2.2 4.2,-1.5 7.7,-3.7 10.7,-6.8 3,-3.1 5.3,-7 6.9,-11.8 1.6,-4.8 2.4,-10.6 2.4,-17.3 0,-12.1 -2.7,-21.1 -8.2,-27.2 z m 6.2,22.1 c 0.1,1.2 -0.8,2.1 -2,2.2 -1.2,0.1 -2.2,-0.8 -2.3,-2 -0.1,-1.2 0.8,-2.1 2,-2.2 1.2,-0.1 2.2,0.8 2.3,2 z m -1,-4 c 0.1,1 -0.7,1.8 -1.7,1.9 -1,0.1 -1.9,-0.7 -1.9,-1.7 -0.1,-1 0.7,-1.8 1.7,-1.9 1,0 1.9,0.7 1.9,1.7 z m -1.5,-4 c 0,0.8 -0.6,1.5 -1.4,1.5 -0.8,0 -1.5,-0.6 -1.5,-1.3 0,-0.8 0.6,-1.5 1.4,-1.5 0.7,0 1.4,0.6 1.5,1.3 z m -3.3,-5 c 0.7,0 1.3,0.5 1.4,1.2 0,0.7 -0.5,1.3 -1.2,1.3 -0.7,0 -1.3,-0.5 -1.4,-1.2 -0.1,-0.6 0.5,-1.2 1.2,-1.3 z m -2.3,-3.2 c 0.5,0 1,0.4 1,0.9 0,0.5 -0.4,1 -0.9,1 -0.5,0 -1,-0.4 -1,-0.9 -0.1,-0.5 0.4,-1 0.9,-1 z m -0.9,42.3 c -3.6,3.5 -8,6.1 -12.8,7.4 -0.5,0.5 -1,1 -1.5,1.4 -2,1.5 -4.3,2.2 -7.1,2.2 -4,0 -7.3,-1.5 -9.8,-4.4 -3.8,-1.4 -7.3,-3.7 -10.2,-6.6 -5.6,-5.4 -8.6,-12.7 -8.6,-20.4 0,-7.7 3.1,-14.9 8.6,-20.4 2.8,-2.7 6.1,-4.7 9.7,-5.9 2.5,-3 5.7,-4.5 9.8,-4.5 3.6,0 6.5,1.2 8.8,3.6 0.3,0.3 0.6,0.6 0.9,1 0.5,0.6 1,1.3 1.4,2.1 1.7,1 3.3,2.2 4.8,3.7 4.7,4.6 7.3,10.8 7.3,17.3 0,6.5 -2.6,12.7 -7.3,17.3 -0.4,0.3 -0.7,0.7 -1.1,1 -0.3,1.8 -0.8,3.5 -1.3,5.1 1.7,-1 3.3,-2.2 4.8,-3.6 4.7,-4.6 7.6,-10.7 8.2,-17.1 0.1,-0.7 0.4,-1.3 1,-1.8 0.6,-0.5 1.3,-0.7 2,-0.6 0.7,0.1 1.4,0.4 1.8,0.9 0.5,0.5 0.7,1.2 0.6,1.9 -1,7.8 -4.5,15 -10,20.4 z"
   id="path97" />
				<path
   class="st7"
   d="m 107.1,89.2 c 0,-4.5 1.5,-8.8 4.3,-12.3 0.3,-2.3 0.7,-4.3 1.2,-6.1 -0.7,0.5 -1.4,1.1 -2.1,1.8 -4.5,4.5 -7.1,10.4 -7.1,16.7 0,6.3 2.5,12.2 7.1,16.7 0.7,0.7 1.5,1.4 2.3,2 -0.5,-1.8 -1,-3.9 -1.3,-6.2 -2.9,-3.7 -4.4,-8.1 -4.4,-12.6 z"
   id="path98" />
				<path
   class="st7"
   d="m 140.9,75.9 c 0.7,4.2 1.1,9.2 1.1,14.9 0,1.2 0,2.4 -0.1,3.6 1.3,-2.6 1.9,-5.4 1.9,-8.3 0.1,-3.7 -0.9,-7.2 -2.9,-10.2 z"
   id="path99" />
				<path
   class="st5"
   d="m 114.7,112.6 c -0.7,-1.4 -1.3,-3 -1.8,-4.7 0,0 -0.1,-0.1 -0.1,-0.1 -0.8,-0.6 -1.6,-1.3 -2.3,-2 -4.5,-4.5 -7.1,-10.4 -7.1,-16.7 0,-6.3 2.5,-12.2 7.1,-16.7 0.7,-0.7 1.4,-1.2 2.1,-1.8 0.1,-0.1 0.1,-0.1 0.2,-0.2 0.5,-1.7 1.1,-3.3 1.8,-4.6 0.6,-1.2 1.3,-2.3 2.1,-3.2 -0.1,0 -0.2,0.1 -0.3,0.1 -3.6,1.2 -6.9,3.2 -9.7,5.9 -5.6,5.5 -8.6,12.7 -8.6,20.4 0,7.7 3.1,14.9 8.6,20.4 2.9,2.9 6.4,5.2 10.2,6.6 0,0 -0.1,-0.1 -0.1,-0.1 -0.7,-0.9 -1.4,-2 -2.1,-3.3 z"
   id="path100" />
				<path
   class="st5"
   d="m 140.9,75.9 c 1.9,3 3,6.5 3,10.2 0,2.9 -0.7,5.8 -1.9,8.3 -0.1,2.9 -0.3,5.7 -0.7,8.3 -0.1,0.6 -0.2,1.1 -0.3,1.7 0.4,-0.3 0.7,-0.6 1.1,-1 4.7,-4.6 7.3,-10.8 7.3,-17.3 0,-6.5 -2.6,-12.7 -7.3,-17.3 -1.4,-1.4 -3,-2.6 -4.8,-3.7 1.3,2.1 2.3,4.8 3,7.9 0.3,0.9 0.5,1.9 0.6,2.9 z"
   id="path101" />
				<path
   class="st5"
   d="m 157.4,87.3 c -0.5,-0.5 -1.1,-0.9 -1.8,-0.9 -0.7,-0.1 -1.4,0.1 -2,0.6 -0.6,0.5 -0.9,1.1 -1,1.8 -0.6,6.4 -3.5,12.5 -8.2,17.1 -1.5,1.4 -3.1,2.6 -4.8,3.6 -0.3,0.9 -0.7,1.8 -1,2.7 -0.9,1.9 -2,3.5 -3.2,4.8 4.8,-1.3 9.2,-3.8 12.8,-7.4 5.6,-5.4 9,-12.7 9.8,-20.3 0.1,-0.8 -0.1,-1.4 -0.6,-2 z"
   id="path102" />
				<path
   class="st5"
   d="m 111.5,101.6 c 0,0.1 0.1,0.1 0.1,0.2 -0.6,-3.8 -0.8,-8.1 -0.8,-13.1 0,-4.5 0.3,-8.6 0.8,-12.1 -0.1,0.1 -0.1,0.1 -0.2,0.2 -2.8,3.5 -4.3,7.8 -4.3,12.3 0,4.6 1.5,9 4.4,12.5 z"
   id="path103" />
				<path
   class="st8"
   d="m 139.7,109.4 c 0.5,-1.6 1,-3.3 1.3,-5.1 0.1,-0.5 0.2,-1.1 0.3,-1.7 0.4,-2.6 0.6,-5.4 0.7,-8.3 0,-1.2 0.1,-2.4 0.1,-3.6 0,-5.7 -0.4,-10.7 -1.1,-14.9 -0.2,-1 -0.4,-2 -0.6,-2.9 -0.8,-3.1 -1.8,-5.8 -3,-7.9 -0.4,-0.8 -0.9,-1.4 -1.4,-2.1 0.5,0.6 0.9,1.3 1.4,2 1.2,2.1 2.2,4.7 2.9,7.8 0.2,0.9 0.4,1.8 0.6,2.8 0.8,4.2 1.1,9.2 1.1,15 0,1.4 0,2.7 -0.1,4 -0.1,2.8 -0.3,5.4 -0.7,7.9 -0.1,0.7 -0.2,1.3 -0.3,2 -0.3,1.8 -0.8,3.5 -1.3,5.1 -0.3,0.8 -0.6,1.6 -0.9,2.4 -0.9,2 -2.1,3.7 -3.5,5.1 -0.4,0.4 -0.8,0.8 -1.3,1.1 -2,1.5 -4.3,2.2 -7.1,2.2 -4,0 -7.2,-1.4 -9.6,-4.2 0,-0.1 -0.1,-0.1 -0.1,-0.2 0,0 0.1,0.1 0.1,0.1 2.5,2.9 5.7,4.4 9.8,4.4 2.8,0 5.2,-0.7 7.1,-2.2 0.5,-0.4 1.1,-0.9 1.5,-1.4 1.3,-1.3 2.3,-2.9 3.2,-4.8 0.2,-0.7 0.6,-1.6 0.9,-2.6 z"
   id="path104" />
			</g>
		</g>
	</g>
	<g
   id="g113">
		<path
   class="st9"
   d="m 86.3,125 c -0.2,-2 0,-44.5 -0.3,-44.1 -0.3,0.5 -8.1,8.7 -8.1,8.7 l -6.7,-8.5 c 0,0 -0.3,43.9 0,43.9 0.4,0 15.1,0 15.1,0 z"
   id="path106" />
		<path
   class="st0"
   d="m 71.3,56.8 c -0.1,0 -0.1,0 0,0"
   id="path107" />
		<path
   class="st0"
   d="m 69.5,60.5 c -0.1,0 -0.2,0 0,0"
   id="path108" />
		<polygon
   class="st10"
   points="86,74.7 78.9,83.6 71.9,74.7 78.9,65.8 "
   id="polygon108" />
		<path
   class="st0"
   d="m 75.4,47.9 c 0,-3.9 3.3,-7 3.3,-7 0,0 3.3,3.1 3.3,7 0,3.9 -3.3,7 -3.3,7 0,0 -3.3,-3.1 -3.3,-7"
   id="path109" />
		<path
   class="st0"
   d="m 67.5,51.9 c -3.4,-2.7 -3.8,-6.8 -3.8,-6.8 0,0 5.1,0.3 8.4,3.1 3.4,2.7 3.8,6.8 3.8,6.8 0,0 -5,-0.4 -8.4,-3.1"
   id="path110" />
		<path
   class="st0"
   d="m 90.4,51.5 c 3.4,-2.7 3.8,-6.8 3.8,-6.8 0,0 -5.1,0.3 -8.4,3.1 -3.4,2.7 -3.8,6.8 -3.8,6.8 0,0 5,-0.4 8.4,-3.1"
   id="path111" />
		<path
   class="st9"
   d="m 78.9,79.2 -3.6,-4.5 3.6,-4.5 3.6,4.5 z m 0,4.4 7.1,-8.9 -7.1,-8.9 -7.1,8.9 z"
   id="path112" />
		<path
   class="st0"
   d="m 90.2,59.3 c 0,-0.6 -0.6,-1.2 -1.2,-1.2 -0.7,0 -1.4,0.2 -2,0.6 -1.3,0.9 -1.4,2.3 -0.8,3.6 1.3,2.6 5.1,2.3 7.1,0.6 2.8,-2.5 -0.3,-6.1 -2.8,-7.5 -1.5,-0.8 -3.4,-1.2 -5.1,-0.8 -2.2,0.6 -3.6,2.4 -4.5,4.2 -0.3,0.7 -0.6,1.4 -0.8,2.1 -0.2,0.7 -0.5,1.4 0.1,2.1 0.2,0.2 0.4,0.5 0.6,0.7 1.1,1.2 2.1,2.5 3.2,3.7 1.9,2.2 3.8,4.5 5.8,6.8 -1.2,1.5 -2.4,3 -3.6,4.5 -2.1,2.6 -4.2,5.3 -6.2,7.9 -0.3,0.4 -0.7,0.8 -1,1.3 -0.2,-0.2 -0.3,-0.4 -0.5,-0.7 -2,-2.5 -4,-5 -5.9,-7.5 l -3.1,-3.9 c -0.4,-0.5 -0.9,-1.1 -1.3,-1.7 1.6,-1.8 3.2,-3.7 4.8,-5.6 1.2,-1.4 2.4,-2.7 3.6,-4.1 0.3,-0.4 0.7,-0.8 1.1,-1.2 0.1,-0.1 0.2,-0.2 0.2,-0.3 0.5,-0.6 0.3,-1.2 0.1,-1.9 -0.7,-2.2 -1.8,-4.6 -4,-5.9 -1.5,-0.9 -3.4,-1 -5.1,-0.5 -1.6,0.6 -3,1.6 -4.1,2.9 -0.8,1 -1.5,2.4 -1.1,3.8 0.6,2.2 4,3.4 6.1,2.6 1.4,-0.5 2.5,-1.9 2.4,-3.4 -0.1,-1.2 -0.9,-2 -2.1,-2.3 -0.3,-0.1 -0.5,-0.1 -0.8,-0.1 -0.7,-0.1 -1.3,0.6 -1.3,1.2 0,0.6 0.5,1 1.1,1.1 0,0 -0.1,0 0,0 0.1,0 0.3,0.1 0.4,0.1 0,0 0,0 -0.1,0 0,0 0,0 0.1,0 0,0 0,0 0,0 0,0 0,0 0,0 0,0 0,0.1 0,0.1 0,0 -0.1,0.2 -0.1,0.3 0,0.1 -0.1,0.2 -0.2,0.3 0,0 0,0.1 -0.1,0.1 0,0 -0.1,0.1 -0.1,0.1 -0.1,0.1 -0.1,0.1 -0.1,0.1 0,0 0,0 -0.1,0 -0.1,0 -0.1,0.1 -0.2,0.1 0,0 0,0 0,0 -0.1,0 -0.2,0.1 -0.4,0.1 v 0 c -0.1,0 -0.2,0 -0.3,0 0,0 -0.2,0 -0.3,0 -0.1,0 -0.2,0 -0.3,-0.1 -0.1,0 -0.3,-0.1 -0.4,-0.1 0,0 0,0 0,0 0,0 0,0 0,0 -0.1,0 -0.2,-0.1 -0.3,-0.1 -0.1,-0.1 -0.2,-0.1 -0.3,-0.2 0,0 0,0 0,0 0,0 -0.1,-0.1 -0.1,-0.1 C 66.1,61 66,60.9 66,60.9 c 0,0 -0.1,-0.1 -0.1,-0.2 0,0 0,-0.1 0,-0.1 0,0 0,0 0,0 v -0.1 c 0,-0.1 0,-0.1 0,-0.2 0,-0.1 0.1,-0.3 0.1,-0.4 0,-0.1 0,-0.1 0.1,-0.2 v 0 c 0.1,-0.1 0.1,-0.3 0.2,-0.4 0.1,-0.1 0.2,-0.3 0.3,-0.4 0,-0.1 0.1,-0.1 0.1,-0.2 0,0 0,0 0,0 0,0 0,0 0,0 0.3,-0.3 0.5,-0.5 0.8,-0.8 0.1,-0.1 0.3,-0.2 0.4,-0.3 0,0 0,0 0,0 0,0 0,0 0,0 0.1,-0.1 0.2,-0.1 0.3,-0.2 0.3,-0.2 0.7,-0.4 1,-0.5 0,0 0,0 0,0 0,0 0,0 0,0 0.1,0 0.2,-0.1 0.3,-0.1 0.2,-0.1 0.4,-0.1 0.6,-0.1 0.1,0 0.1,0 0.2,0 0,0 0,0 0.1,0 0.2,0 0.4,0 0.6,0 0.1,0 0.2,0 0.3,0 0,0 -0.1,0 -0.1,0 0,0 0.1,0 0.1,0 0.2,0 0.4,0.1 0.6,0.1 0,0 0.1,0 0.1,0 0,0 0,0 0,0 0.1,0.1 0.2,0.1 0.3,0.1 0.1,0.1 0.2,0.1 0.3,0.2 0,0 0.1,0 0.1,0.1 0.2,0.2 0.4,0.3 0.6,0.5 0.1,0.1 0.2,0.2 0.3,0.3 0,0.1 0.1,0.1 0.1,0.2 0.8,1.1 1.3,2.3 1.6,3.5 -2.9,3.3 -5.7,6.6 -8.6,9.9 -0.4,0.5 -0.9,1 -1.3,1.5 -0.3,0.4 -0.5,1 -0.2,1.4 1.4,1.8 2.8,3.6 4.2,5.4 0,0 0,0 0,0 v 46.8 H 87.8 V 80.2 c 0.8,-1 1.6,-2.1 2.4,-3.1 0.6,-0.8 1.2,-1.5 1.8,-2.3 0,0 0.1,-0.1 0.1,-0.1 0.4,-0.4 0.1,-1 -0.2,-1.4 -3,-3.5 -6,-7 -9.1,-10.5 -0.3,-0.3 -0.5,-0.6 -0.8,-0.9 0.3,-1.2 0.7,-2.2 1.4,-3.2 0.1,-0.1 0.1,-0.2 0.2,-0.3 0,0 0.1,-0.1 0.1,-0.2 0.2,-0.2 0.3,-0.4 0.5,-0.5 0.1,-0.1 0.2,-0.2 0.3,-0.2 0,0 0.1,0 0.1,-0.1 0.2,-0.1 0.4,-0.2 0.6,-0.3 0.1,0 0.2,-0.1 0.3,-0.1 -0.3,0.2 0,0 0.1,0 0.2,-0.1 0.4,-0.1 0.6,-0.1 0,0 0,0 0,0 0.1,0 0.2,0 0.2,0 0.2,0 0.4,0 0.6,0 v 0 c 0,0 0,0 0,0 0.1,0 0.2,0 0.3,0 0.2,0 0.4,0.1 0.6,0.2 0.1,0 0.2,0.1 0.3,0.1 0,0 0,0 0,0 0,0 0,0 0,0 0.2,0.1 0.4,0.2 0.5,0.3 0.2,0.1 0.3,0.2 0.5,0.3 0.1,0.1 0.2,0.1 0.3,0.2 0,0 0,0 0,0 0,0 0,0 0,0 0.3,0.2 0.6,0.5 0.9,0.8 0.1,0.1 0.2,0.2 0.3,0.3 0,0 0,0 0,0.1 0.1,0.1 0.1,0.2 0.2,0.2 0.1,0.1 0.2,0.3 0.3,0.4 0,0.1 0.1,0.1 0.1,0.2 0,0 0,0 0,0 0,0 0,0 0,0 0,0 0,0 0,0 0,0.1 0,0.1 0,0.1 0,0.1 0.1,0.2 0.1,0.3 0,0.1 0,0.1 0,0.2 v 0 c 0,0.1 0,0.2 0,0.3 0,0 0,0.1 0,0.1 0,0.1 -0.1,0.1 -0.1,0.2 0,0 0,0 0,0 0,0 -0.1,0.1 -0.1,0.1 -0.1,0 -0.1,0.1 -0.2,0.1 0,0 -0.1,0.1 -0.1,0.1 -0.1,0 -0.2,0.1 -0.2,0.1 -0.1,0.1 -0.2,0.1 -0.4,0.2 0,0 -0.2,0.1 -0.3,0.1 -0.1,0 -0.3,0.1 -0.5,0.1 0,0 -0.2,0 -0.3,0 -0.1,0 -0.2,0 -0.2,0 0,0 0,0 0,0 0,0 0,0 0,0 -0.1,0 -0.3,-0.1 -0.4,-0.1 0,0 0,0 0,0 -0.1,0 -0.1,-0.1 -0.2,-0.1 0,0 -0.1,-0.1 -0.2,-0.2 0,0 0,0 0,-0.1 -0.1,-0.1 -0.1,-0.2 -0.2,-0.3 0,-0.1 -0.1,-0.2 -0.1,-0.4 0,0.1 0,0.1 0,0 0,0 0,0 0,-0.1 0,0 0,0 0,0 0,0 0.1,-0.1 0.1,-0.1 -0.2,0.2 -0.1,0.1 0.1,0 0,0 0,0 0,0 0,0 0,0 0,0 0.2,0 0.3,-0.1 0.5,-0.1 0.1,0 0.1,0 0.1,0 1,-0.2 1.5,-0.6 1.5,-1.2 z m -21.3,2.5 c 0,-0.1 0.1,-0.1 0,0 z M 79,88 c 0.1,0 0.1,0 0,0 0.1,0 0.2,0.2 0,0 z m -5.5,35 V 85 c 0.8,1 1.6,2.1 2.5,3.1 0.6,0.8 1.3,1.9 2.4,2.2 1.4,0.4 2.3,-0.6 3,-1.6 1,-1.2 1.9,-2.4 2.9,-3.6 V 123 Z"
   id="path113" />
	</g>
</g>
</svg>
