<?xml version="1.0" encoding="UTF-8" standalone="no"?>
<svg
   id="Capa_1"
   data-name="Capa 1"
   viewBox="0 0 514.40259 460.28"
   version="1.1"
   sodipodi:docname="ioi_logo_square.svg"
   width="514.40259"
   height="460.28"
   inkscape:version="1.4 (e7c3feb1, 2024-10-09)"
   xmlns:inkscape="http://www.inkscape.org/namespaces/inkscape"
   xmlns:sodipodi="http://sodipodi.sourceforge.net/DTD/sodipodi-0.dtd"
   xmlns="http://www.w3.org/2000/svg"
   xmlns:svg="http://www.w3.org/2000/svg">
  <sodipodi:namedview
     id="namedview111"
     pagecolor="#ffffff"
     bordercolor="#000000"
     borderopacity="0.25"
     inkscape:showpageshadow="2"
     inkscape:pageopacity="0.0"
     inkscape:pagecheckerboard="0"
     inkscape:deskcolor="#d1d1d1"
     inkscape:zoom="0.4579096"
     inkscape:cx="390.90685"
     inkscape:cy="279.53115"
     inkscape:window-width="1224"
     inkscape:window-height="643"
     inkscape:window-x="0"
     inkscape:window-y="38"
     inkscape:window-maximized="0"
     inkscape:current-layer="Capa_1" />
  <defs
     id="defs1">
    <style
       id="style1">.cls-1{fill:#026734;}.cls-2{fill:#645c2c;}.cls-3{fill:#a24635;}.cls-4{fill:#f8ebd1;}.cls-5{fill:#eb6435;}.cls-6{fill:none;}.cls-7{fill:#f5eb65;}.cls-8{fill:#fff;}.cls-9{fill:#bbd036;}.cls-10{fill:#ffd003;}.cls-11{fill:#010101;}</style>
  </defs>
  <title
     id="title1">LOGO IOI EN SVG</title>
  <path
     class="cls-1"
     d="m 113.42256,97.2 c 0,0.11 0.07,0.2 0.1,0.27 0,-0.08 -0.06,-0.17 -0.08,-0.24 v 0"
     id="path1" />
  <polygon
     class="cls-2"
     points="458,501.55 458.01,501.55 487.87,459.09 "
     id="polygon1"
     transform="translate(-50.95744,-150.62)" />
  <polygon
     class="cls-2"
     points="489.97,456.1 499.02,443.24 489.97,456.1 "
     id="polygon2"
     transform="translate(-50.95744,-150.62)" />
  <polygon
     class="cls-2"
     points="471.91,301.02 471.91,311.25 486.42,331.88 491.45,324.73 473.35,298.98 "
     id="polygon3"
     transform="translate(-50.95744,-150.62)" />
  <path
     class="cls-2"
     d="m 426.84256,95.83 -4.88,-6.94 2.11,-3 4.88,6.94 5.54,-7.86 -4.88,-6.94 2.1,-3 4.87,6.93 5.53,-7.87 -4.88,-6.94 2.12,-3 4.88,6.93 5.53,-7.85 -4.88,-6.93 2.1,-3 4.8,6.82 V 45.91 h -54.74 v 14.8 a 58.5,58.5 0 0 1 13.31,4.94 17.23,17.23 0 0 1 7.15,7.28 30.91,30.91 0 0 1 2.91,11.54 q 0.54,7 0.55,17.72 v 0.6 l 0.49,0.68 z"
     id="path3" />
  <polygon
     class="cls-2"
     points="471.91,330.22 479.75,341.37 485.05,333.82 471.91,315.15 "
     id="polygon4"
     transform="translate(-50.95744,-150.62)" />
  <path
     class="cls-2"
     d="m 397.04256,350.93 h 10 l 29.86,-42.46 -0.82,-1.17 -4.88,6.94 -2.1,-3 4.88,-6.94 -5.68,-8.05 -4.87,6.94 -2.11,-3 4.88,-6.94 -5.26,-7.47 v 9.89 q 0,10.77 -0.67,17.82 a 32.21,32.21 0 0 1 -3,11.67 16.56,16.56 0 0 1 -7.15,7.17 63,63 0 0 1 -13.08,4.83 z"
     id="path4" />
  <polygon
     class="cls-2"
     points="502.74,348.72 471.91,392.56 471.91,430.43 489.97,456.1 499.02,443.24 502.74,437.94 "
     id="polygon5"
     transform="translate(-50.95744,-150.62)" />
  <polygon
     class="cls-2"
     points="497.94,223.78 471.91,260.8 471.91,293.73 473.35,291.69 496.57,324.73 473.35,357.76 471.91,355.72 471.91,386.57 502.74,342.74 502.74,216.97 497.94,223.79 "
     id="polygon6"
     transform="translate(-50.95744,-150.62)" />
  <polygon
     class="cls-2"
     points="471.91,348.43 473.35,350.47 478.37,343.33 471.91,334.15 "
     id="polygon7"
     transform="translate(-50.95744,-150.62)" />
  <polygon
     class="cls-2"
     points="499.02,443.24 489.97,456.1 502.74,474.26 502.74,437.94 "
     id="polygon8"
     transform="translate(-50.95744,-150.62)" />
  <polygon
     class="cls-2"
     points="495.85,470.44 494.69,468.79 489.81,475.72 487.69,472.74 492.57,465.8 487.87,459.09 458.01,501.55 502.74,501.55 502.74,480.51 497.95,487.31 495.85,484.32 500.72,477.38 "
     id="polygon9"
     transform="translate(-50.95744,-150.62)" />
  <polygon
     class="cls-2"
     points="502.74,437.94 499.02,443.24 "
     id="polygon10"
     transform="translate(-50.95744,-150.62)" />
  <path
     class="cls-3"
     d="m 494.29256,72.81 a 19.25,19.25 0 0 1 6.59,-6.84 44.85,44.85 0 0 1 11.25,-4.59 V 45.91 h -46.66 l 25.81,36.7 a 29.45,29.45 0 0 1 3.01,-9.8 z"
     id="path10" />
  <polygon
     class="cls-3"
     points="541.22,364.28 531.67,350.71 526.65,357.86 541.22,378.57 "
     id="polygon11"
     transform="translate(-50.95744,-150.62)" />
  <polygon
     class="cls-3"
     points="541.22,383.23 541.22,382.48 525.27,359.81 519.97,367.35 536.18,390.39 "
     id="polygon12"
     transform="translate(-50.95744,-150.62)" />
  <polygon
     class="cls-3"
     points="529.77,399.5 534.8,392.35 518.6,369.3 513.57,376.45 "
     id="polygon13"
     transform="translate(-50.95744,-150.62)" />
  <path
     class="cls-3"
     d="m 451.86256,60.22 v 0 l 4.87,-6.92 2.09,3 -4.86,6.91 6.05,8.58 4.87,-6.92 2.11,3 -4.87,6.93 5.53,7.86 4.86,-6.91 2.11,3 -4.87,6.93 5.67,8.05 4.86,-6.92 2.11,3 -4.86,6.92 5.39,7.68 4.86,-6.93 2.11,3 -4.85,6.9 5.22,7.43 v -12.43 a 150.49,150.49 0 0 1 0.89,-19.06 c 0,-0.26 0.09,-0.49 0.13,-0.74 l -25.81,-36.7 h -13.69 v 14.21 z"
     id="path13" />
  <polygon
     class="cls-3"
     points="502.74,216.97 502.74,342.74 541.22,288.03 541.22,271.42 507.71,223.77 507.7,223.79 502.82,216.86 "
     id="polygon14"
     transform="translate(-50.95744,-150.62)" />
  <polygon
     class="cls-3"
     points="508.45,376.45 531.67,343.41 541.22,356.99 541.22,294.02 502.74,348.72 502.74,437.94 527.21,403.14 "
     id="polygon15"
     transform="translate(-50.95744,-150.62)" />
  <polygon
     class="cls-3"
     points="534.8,392.35 529.77,399.5 531.67,402.2 536.7,395.06 "
     id="polygon16"
     transform="translate(-50.95744,-150.62)" />
  <polygon
     class="cls-3"
     points="502.74,474.26 502.83,474.39 541.22,419.8 541.22,395.92 531.67,409.49 527.21,403.15 502.74,437.94 "
     id="polygon17"
     transform="translate(-50.95744,-150.62)" />
  <polygon
     class="cls-3"
     points="541.22,383.23 536.18,390.39 538.09,393.09 541.22,388.64 "
     id="polygon18"
     transform="translate(-50.95744,-150.62)" />
  <path
     class="cls-3"
     d="m 484.39256,283.51 4.88,6.93 -2.11,3 -4.88,-6.94 -5.39,7.68 4.88,6.94 -2.11,3 -4.88,-6.93 -5.53,7.85 4.88,6.94 -2.11,3 -4.88,-6.93 -5.52,7.87 4.88,6.94 -2.11,3 -4.88,-6.93 -0.66,0.92 -4.88,6.94 4.88,6.94 -2.1,3 -4.88,-6.92 -0.09,0.12 v 21 h 60.35 v -14.37 a 51.3,51.3 0 0 1 -8.68,-3.1 21.4,21.4 0 0 1 -7,-5.05 19.2,19.2 0 0 1 -3.92,-7.16 48,48 0 0 1 -1.78,-11 c -0.31,-4.49 -0.45,-9.35 -0.45,-14.58 v -19.92 l -0.21,-0.29 z"
     id="path18" />
  <polygon
     class="cls-3"
     points="502.74,437.94 502.74,437.94 527.21,403.15 527.21,403.14 "
     id="polygon19"
     transform="translate(-50.95744,-150.62)" />
  <polygon
     class="cls-3"
     points="529.77,399.5 529.77,399.5 534.8,392.35 "
     id="polygon20"
     transform="translate(-50.95744,-150.62)" />
  <polygon
     class="cls-3"
     points="541.22,383.23 536.18,390.39 541.22,383.23 "
     id="polygon21"
     transform="translate(-50.95744,-150.62)" />
  <polygon
     class="cls-4"
     points="487.87,459.09 487.87,459.09 489.97,456.1 "
     id="polygon22"
     transform="translate(-50.95744,-150.62)" />
  <polygon
     class="cls-4"
     points="479.27,446.88 484.95,454.93 480.07,461.87 482.17,464.86 487.05,457.93 487.87,459.09 489.97,456.1 471.91,430.43 471.91,436.41 477.17,443.88 472.29,450.82 474.39,453.81 "
     id="polygon23"
     transform="translate(-50.95744,-150.62)" />
  <polygon
     class="cls-4"
     points="502.74,210.74 497.94,203.92 495.84,206.93 500.71,213.86 495.19,221.71 490.31,214.78 488.19,217.77 493.07,224.71 487.54,232.58 482.67,225.65 480.57,228.64 485.45,235.58 479.91,243.44 475.03,236.5 472.92,239.51 477.8,246.45 472.4,254.09 471.91,253.41 471.91,260.8 497.94,223.78 497.94,223.79 502.74,216.97 "
     id="polygon24"
     transform="translate(-50.95744,-150.62)" />
  <polygon
     class="cls-4"
     points="471.91,392.56 502.74,348.72 502.74,342.74 471.91,386.57 "
     id="polygon25"
     transform="translate(-50.95744,-150.62)" />
  <polygon
     class="cls-4"
     points="487.69,472.74 489.81,475.72 494.69,468.79 495.85,470.44 500.72,477.38 495.85,484.32 497.95,487.31 502.74,480.51 502.74,474.26 489.97,456.1 487.87,459.09 492.57,465.8 "
     id="polygon26"
     transform="translate(-50.95744,-150.62)" />
  <polygon
     class="cls-4"
     points="541.22,288.03 502.74,342.74 502.74,348.72 541.22,294.02 "
     id="polygon27"
     transform="translate(-50.95744,-150.62)" />
  <polygon
     class="cls-4"
     points="533.89,255.01 528.5,247.33 533.36,240.41 531.25,237.42 526.39,244.34 520.72,236.29 525.59,229.36 523.48,226.37 518.62,233.28 513.09,225.42 517.96,218.49 515.85,215.5 510.98,222.42 504.93,213.84 509.79,206.93 507.7,203.92 502.83,210.84 502.82,210.84 502.74,210.74 502.74,216.97 502.82,216.86 507.7,223.79 507.71,223.77 541.22,271.42 541.22,265.43 536,258 540.86,251.07 538.75,248.08 "
     id="polygon28"
     transform="translate(-50.95744,-150.62)" />
  <polygon
     class="cls-4"
     points="502.83,480.39 507.71,487.31 509.81,484.32 504.93,477.38 509.81,470.44 510.47,469.52 515.35,476.45 517.46,473.46 512.58,466.52 518.1,458.65 522.98,465.58 525.09,462.59 520.21,455.65 525.74,447.8 530.62,454.73 532.73,451.74 527.85,444.8 533.24,437.12 538.12,444.06 540.23,441.06 535.35,434.13 541.01,426.08 541.22,426.37 541.22,419.8 502.83,474.39 502.74,474.26 502.74,480.51 "
     id="polygon29"
     transform="translate(-50.95744,-150.62)" />
  <polygon
     class="cls-4"
     points="471.91,293.73 471.91,301.02 473.35,298.98 491.45,324.73 486.42,331.88 471.91,311.25 471.91,315.15 485.05,333.82 479.75,341.37 471.91,330.22 471.91,334.15 478.37,343.33 473.35,350.47 471.91,348.43 471.91,355.72 473.35,357.76 496.57,324.73 473.35,291.69 "
     id="polygon30"
     transform="translate(-50.95744,-150.62)" />
  <polygon
     class="cls-4"
     points="529.77,399.5 513.57,376.45 518.6,369.3 534.8,392.35 536.18,390.39 519.97,367.35 525.27,359.81 541.22,382.48 541.22,378.57 526.65,357.86 531.67,350.71 541.22,364.28 541.22,356.99 531.67,343.41 508.45,376.45 527.21,403.14 "
     id="polygon31"
     transform="translate(-50.95744,-150.62)" />
  <polygon
     class="cls-4"
     points="536.7,395.06 531.67,402.2 529.77,399.5 527.21,403.15 531.67,409.49 541.22,395.92 541.22,388.64 538.09,393.09 536.18,390.39 534.8,392.35 "
     id="polygon32"
     transform="translate(-50.95744,-150.62)" />
  <polygon
     class="cls-4"
     points="527.21,403.14 527.21,403.15 529.77,399.5 "
     id="polygon33"
     transform="translate(-50.95744,-150.62)" />
  <polygon
     class="cls-4"
     points="534.8,392.35 534.8,392.35 536.18,390.39 "
     id="polygon34"
     transform="translate(-50.95744,-150.62)" />
  <path
     class="cls-3"
     d="m 514.40256,60.71 v -14.8 h -2.27 v 15.47 c 0.73,-0.25 1.49,-0.46 2.27,-0.67 z"
     id="path34" />
  <path
     class="cls-3"
     d="m 514.40256,350.93 v -13.77 c -0.79,-0.19 -1.53,-0.39 -2.27,-0.6 v 14.37 z"
     id="path35" />
  <polygon
     class="cls-5"
     points="457.29,502.58 458.01,501.55 458,501.55 457.29,502.58 "
     id="polygon35"
     transform="translate(-50.95744,-150.62)" />
  <path
     class="cls-5"
     d="m 368.15256,175.38 a 8.82,8.82 0 1 0 8.29,-9.12 8.75,8.75 0 0 0 -8.29,9.12 z"
     id="path36" />
  <path
     class="cls-5"
     d="m 366.87256,158.83 a 7.45,7.45 0 1 0 7,-7.71 7.41,7.41 0 0 0 -7,7.71 z"
     id="path37" />
  <path
     class="cls-5"
     d="m 363.37256,142.48 a 6,6 0 1 0 5.64,-6.2 6,6 0 0 0 -5.64,6.2 z"
     id="path38" />
  <path
     class="cls-5"
     d="m 362.42256,131.68 a 5.21,5.21 0 1 0 -5.62,-4.89 5.25,5.25 0 0 0 5.62,4.89 z"
     id="path39" />
  <path
     class="cls-5"
     d="m 352.82256,115.68 a 3.88,3.88 0 1 0 -4.19,-3.65 3.9,3.9 0 0 0 4.19,3.65 z"
     id="path40" />
  <path
     class="cls-6"
     d="m 366.87256,158.83 a 7.45,7.45 0 1 0 7,-7.71 7.41,7.41 0 0 0 -7,7.71 z"
     id="path41" />
  <path
     class="cls-6"
     d="m 368.15256,175.38 a 8.82,8.82 0 1 0 8.29,-9.12 8.75,8.75 0 0 0 -8.29,9.12 z"
     id="path42" />
  <path
     class="cls-6"
     d="m 352.82256,115.68 a 3.88,3.88 0 1 0 -4.19,-3.65 3.9,3.9 0 0 0 4.19,3.65 z"
     id="path43" />
  <path
     class="cls-6"
     d="m 363.37256,142.48 a 6,6 0 1 0 5.64,-6.2 6,6 0 0 0 -5.64,6.2 z"
     id="path44" />
  <path
     class="cls-6"
     d="m 362.42256,131.68 a 5.21,5.21 0 1 0 -5.62,-4.89 5.25,5.25 0 0 0 5.62,4.89 z"
     id="path45" />
  <path
     class="cls-6"
     d="m 210.24256,102.68 a 104.68,104.68 0 0 0 -7.42,19.05 l -0.86,0.63 a 187.78,187.78 0 0 0 -5.1,25.22 c 0.24,-0.3 0.47,-0.6 0.72,-0.89 a 351.24,351.24 0 0 0 -3.1,49.58 370.46,370.46 0 0 0 3.48,53.89 c -0.18,-0.21 -0.34,-0.43 -0.51,-0.64 a 191.33,191.33 0 0 0 5.38,25.37 c 0.15,0.1 0.28,0.21 0.43,0.32 a 114.43,114.43 0 0 0 7.42,19.46 71.49,71.49 0 0 0 8.79,13.65 c 0.19,0.22 0.39,0.42 0.58,0.64 q 15.23,17.35 39.65,17.38 17.2,0 29.28,-9.08 a 56.52,56.52 0 0 0 5.34,-4.61 68.9,68.9 0 0 0 14.23,-20.78 c 1.42,-3.1 2.71,-6.38 3.9,-9.8 a 145.53,145.53 0 0 0 5.46,-20.81 c 0.5,-2.62 1,-5.28 1.36,-8 a 315.9,315.9 0 0 0 2.9,-32.4 q 0.33,-8.1 0.34,-16.64 0,-35.38 -4.64,-61.46 -1.08,-6 -2.4,-11.55 -4.55,-19 -12.1,-32 a 69.51,69.51 0 0 0 -5.63,-8.35 c -1.13,-1.44 -2.3,-2.79 -3.51,-4.07 q -14.19,-15 -36.32,-15 -25.2,0 -40.32,18.35 0.69,-0.24 1.38,-0.45 a 66.83,66.83 0 0 0 -8.73,12.99 z"
     id="path46" />
  <path
     class="cls-7"
     d="m 360.29256,83.68 q -33.51,-37.55 -100.37,-37.54 -42.92,0 -74,18.16 -31.08,18.16 -47.06,53.08 -16,34.92 -16,84.17 0,75.09 33,112.74 33,37.65 98.7,37.66 31.51,0 57.11,-9 a 111,111 0 0 0 43.94,-28 q 18.31,-19.05 28.27,-48.71 9.96,-29.66 10,-71 -0.04,-74.03 -33.59,-111.56 z m 25.46,90.7 a 8.82,8.82 0 1 1 -9.31,-8.11 8.7,8.7 0 0 1 9.31,8.11 z m -4,-16.42 a 7.45,7.45 0 1 1 -7.87,-6.86 7.35,7.35 0 0 1 7.87,6.88 z m -6.4,-16.18 a 6,6 0 1 1 -6.31,-5.5 5.94,5.94 0 0 1 6.31,5.52 z m -13.55,-20.5 a 5.21,5.21 0 1 1 -5,5.51 5.28,5.28 0 0 1 5,-5.51 z m -9.44,-13.35 a 3.88,3.88 0 1 1 -3.73,4.1 3.94,3.94 0 0 1 3.73,-4.1 z m -3.82,174 a 121,121 0 0 1 -52.7,30.3 53.59,53.59 0 0 1 -6.36,5.64 q -12.06,9.09 -29.28,9.09 -24.89,0 -40.23,-18 a 118,118 0 0 1 -42.12,-27.11 116.61,116.61 0 0 1 0,-167.48 102.15,102.15 0 0 1 39.72,-24.24 q 15.13,-18.32 40.32,-18.35 22.14,0 36.32,15 c 1.21,1.28 2.38,2.63 3.51,4.07 a 70.31,70.31 0 0 1 5.85,8.48 103.66,103.66 0 0 1 19.54,15 99.19,99.19 0 0 1 0,142.24 c -1.44,1.42 -2.95,2.75 -4.48,4.05 a 148.37,148.37 0 0 1 -5.32,21 99.78,99.78 0 0 0 19.6,-14.94 114.25,114.25 0 0 0 33.77,-70.13 10.59,10.59 0 0 1 4,-7.38 11.13,11.13 0 0 1 8.11,-2.42 11,11 0 0 1 7.51,3.88 10.44,10.44 0 0 1 2.47,7.93 135.46,135.46 0 0 1 -40.23,83.37 z"
     id="path47" />
  <path
     class="cls-7"
     d="m 179.15256,198.18 a 80.85,80.85 0 0 1 17.71,-50.6 187.78,187.78 0 0 1 5.1,-25.22 79.4,79.4 0 0 0 -8.67,7.36 95.3,95.3 0 0 0 0,136.93 101.67,101.67 0 0 0 9.54,8.24 191.33,191.33 0 0 1 -5.38,-25.37 80.86,80.86 0 0 1 -18.3,-51.34 z"
     id="path48" />
  <path
     class="cls-7"
     d="m 318.41256,143.57 q 4.62,26 4.61,61.24 c 0,5.09 -0.1,10.05 -0.28,14.91 a 77.54,77.54 0 0 0 -4.33,-76.15 z"
     id="path49" />
  <path
     class="cls-5"
     d="m 210.68256,294.67 a 114.43,114.43 0 0 1 -7.42,-19.46 c -0.15,-0.11 -0.28,-0.22 -0.43,-0.32 a 101.67,101.67 0 0 1 -9.54,-8.24 95.3,95.3 0 0 1 0,-136.93 79.4,79.4 0 0 1 8.67,-7.36 l 0.86,-0.63 a 104.68,104.68 0 0 1 7.42,-19.05 66.83,66.83 0 0 1 8.73,-13 q -0.69,0.21 -1.38,0.45 a 102.15,102.15 0 0 0 -39.72,24.25 116.61,116.61 0 0 0 0,167.48 118,118 0 0 0 42.12,27.11 l -0.5,-0.61 a 71.49,71.49 0 0 1 -8.81,-13.69 z"
     id="path50" />
  <path
     class="cls-5"
     d="m 318.41256,143.57 a 77.54,77.54 0 0 1 4.33,76.15 319,319 0 0 1 -3,34.12 c -0.34,2.32 -0.72,4.57 -1.13,6.79 1.53,-1.3 3,-2.63 4.48,-4.05 a 99.19,99.19 0 0 0 0,-142.24 103.66,103.66 0 0 0 -19.54,-15 q 7.74,13.13 12.39,32.5 1.38,5.54 2.47,11.73 z"
     id="path51" />
  <path
     class="cls-5"
     d="m 386.28256,190.6 a 11,11 0 0 0 -7.51,-3.88 11.13,11.13 0 0 0 -8.11,2.42 10.59,10.59 0 0 0 -4,7.38 114.25,114.25 0 0 1 -33.77,70.13 99.78,99.78 0 0 1 -19.6,14.94 113.42,113.42 0 0 1 -4.28,10.9 69.41,69.41 0 0 1 -13.21,19.74 121,121 0 0 0 52.7,-30.3 135.46,135.46 0 0 0 40.21,-83.4 10.44,10.44 0 0 0 -2.43,-7.93 z"
     id="path52" />
  <path
     class="cls-5"
     d="m 197.45256,249.52 c 0.17,0.21 0.33,0.43 0.51,0.64 a 370.46,370.46 0 0 1 -3.48,-53.89 351.24,351.24 0 0 1 3.1,-49.58 c -0.25,0.29 -0.48,0.59 -0.72,0.89 a 81.15,81.15 0 0 0 0.59,101.94 z"
     id="path53" />
  <path
     class="cls-8"
     d="m 313.33256,281.59 a 148.37,148.37 0 0 0 5.32,-21 c 0.41,-2.22 0.79,-4.47 1.13,-6.79 a 319,319 0 0 0 3,-34.12 c 0.18,-4.86 0.28,-9.82 0.28,-14.91 q 0,-35.25 -4.61,-61.24 -1.1,-6.15 -2.43,-11.77 -4.63,-19.4 -12.39,-32.5 a 70.31,70.31 0 0 0 -5.85,-8.48 69.51,69.51 0 0 1 5.63,8.35 q 7.55,13 12.1,32 1.32,5.52 2.4,11.55 4.65,26.07 4.64,61.46 0,8.55 -0.34,16.64 a 315.9,315.9 0 0 1 -2.9,32.4 c -0.4,2.75 -0.86,5.41 -1.36,8 a 145.53,145.53 0 0 1 -5.46,20.81 c -1.19,3.42 -2.48,6.7 -3.9,9.8 a 68.9,68.9 0 0 1 -14.23,20.78 56.52,56.52 0 0 1 -5.34,4.61 q -12.11,9.2 -29.32,9.2 -24.43,0 -39.65,-17.38 c -0.19,-0.22 -0.39,-0.42 -0.58,-0.64 l 0.5,0.61 q 15.35,18 40.23,18 17.2,0 29.28,-9.09 a 53.59,53.59 0 0 0 6.36,-5.64 69.41,69.41 0 0 0 13.2,-19.75 113.42,113.42 0 0 0 4.29,-10.9 z"
     id="path54" />
  <path
     class="cls-9"
     d="m 94.04256,345.49 c -0.64,-8.29 0,-183.09 -1.28,-181.18 -1.28,1.91 -33.17,35.73 -33.17,35.73 l -27.45,-35.09 c 0,0 -1.35,180.64 0,180.54 1.35,-0.1 61.9,0 61.9,0 z"
     id="path55" />
  <path
     class="cls-1"
     d="m 32.12256,65.01 c -0.28,0 -0.33,0 0,0"
     id="path56" />
  <path
     class="cls-1"
     d="m 24.59256,80.45 c -0.4,-0.13 -0.51,-0.08 0,0"
     id="path57" />
  <polygon
     class="cls-10"
     points="143.63,289.52 114.53,326.14 85.42,289.52 114.53,252.91 "
     id="polygon57"
     transform="translate(-50.95744,-150.62)" />
  <path
     class="cls-1"
     d="m 48.95256,28.78 c 0,-15.9 13.49,-28.78 13.49,-28.78 0,0 13.5,12.88 13.5,28.78 0,15.9 -13.5,28.78 -13.5,28.78 0,0 -13.49,-12.89 -13.49,-28.78"
     id="path58" />
  <path
     class="cls-1"
     d="M 16.52256,44.93 C 2.6325601,33.69 0.90256013,16.86 0.90256013,16.86 c 0,0 20.79999987,1.39 34.69999987,12.63 13.9,11.24 15.6,28.07 15.6,28.07 0,0 -20.8,-1.38 -34.68,-12.63"
     id="path59" />
  <path
     class="cls-1"
     d="m 110.62256,43.27 c 13.88,-11.24 15.61,-28.08 15.61,-28.08 0,0 -20.8,1.41 -34.68,12.65 -13.88,11.24 -15.61,28.06 -15.61,28.06 0,0 20.8,-1.39 34.68,-12.63"
     id="path60" />
  <path
     class="cls-9"
     d="m 63.57256,157.29 -14.61,-18.38 14.61,-18.38 14.61,18.38 z m 0,18.23 29.1,-36.61 -29.1,-36.62 -29.11,36.62 z"
     id="path61" />
  <path
     class="cls-1"
     d="m 110.04256,75.3 a 5,5 0 0 0 -5.13,-4.8 17.65,17.65 0 0 0 -8.31,2.52 c -5.4,3.51 -5.77,9.43 -3.12,14.69 5.38,10.64 21.09,9.42 29.11,2.36 11.47,-10.11 -1.29,-25.11 -11.5,-30.77 -6.18,-3.42 -13.82,-5.07 -20.86,-3.1 -8.91,2.5 -14.93,9.74 -18.55,17.41 a 65.13,65.13 0 0 0 -3.37,8.55 c -1,3 -2,5.84 0.28,8.57 0.85,1 1.71,2 2.56,3 q 6.6,7.63 13.17,15.26 c 8,9.25 15.76,18.65 23.9,27.75 l -14.67,18.52 q -12.88,16.29 -25.8,32.58 c -1.35,1.7 -2.92,3.43 -4.2,5.24 -0.74,-0.87 -1.42,-1.81 -2.12,-2.69 l -24.39,-30.86 -12.76,-16.09 c -1.78,-2.24 -3.5,-4.55 -5.32,-6.79 l 19.68,-22.82 14.62,-16.95 c 1.44,-1.67 2.89,-3.33 4.33,-5 l 1,-1.11 c 2.13,-2.5 1.44,-4.86 0.6,-7.66 -2.77,-9.24 -7.43,-19.07 -16.4,-24.44 a 25.35,25.35 0 0 0 -20.87,-1.89 36.77,36.77 0 0 0 -16.8799999,11.87 c -3.42,4.26 -6.17,10 -4.57999997,15.42 2.64999997,9 16.28999987,13.79 25.12999987,10.52 5.87,-2.18 10.19,-7.93 9.92,-13.93 -0.24,-4.8 -3.8,-8.26 -8.57,-9.62 a 17.3,17.3 0 0 0 -3.27,-0.54 5,5 0 0 0 -5.14,4.8 c 0,2.54 2,4.21 4.5,4.65 -0.2,0 -0.32,0 0.12,0.09 a 12.46,12.46 0 0 0 1.67,0.44 h -0.25 a 3.43,3.43 0 0 1 0.33,0.12 l 0.14,0.1 a 0.87,0.87 0 0 1 0.14,0.16 c 0,0.19 0,0.4 0,0.61 0,0.21 -0.28,1 -0.35,1.17 a 8.7,8.7 0 0 1 -0.7,1.35 3.3,3.3 0 0 1 -0.26,0.39 c -0.08,0.06 -0.37,0.38 -0.44,0.45 a 2,2 0 0 0 -0.35,0.32 1.35,1.35 0 0 0 -0.25,0.12 c -0.25,0.14 -0.51,0.27 -0.76,0.39 h -0.08 c -0.51,0.16 -1,0.26 -1.53,0.37 v 0 c -0.39,0 -0.79,0 -1.17,0 -0.2,0 -1,-0.07 -1.23,-0.08 -0.23,-0.01 -1,-0.19 -1.21,-0.25 a 15.71,15.71 0 0 1 -1.62,-0.47 h -0.11 c 0,0 0,0 0,0 -0.36,-0.15 -0.73,-0.32 -1.08,-0.5 -0.35,-0.18 -1,-0.53 -1.42,-0.81 l -0.09,-0.06 a 4,4 0 0 1 -0.5,-0.4 13.43,13.43 0 0 1 -1,-1 6.5,6.5 0 0 0 -0.51,-0.76 l -0.16,-0.43 c 0,0 0,0 0,0 v -0.28 c 0,-0.21 0,-0.44 0,-0.65 0.17,-0.45 0.24,-1 0.39,-1.5 0.09,-0.25 0.19,-0.5 0.28,-0.76 v 0 c 0.32,-0.54 0.56,-1.11 0.88,-1.63 0.32,-0.52 0.72,-1.14 1.12,-1.68 l 0.58,-0.77 v -0.09 h 0.06 a 36.92,36.92 0 0 1 3.25,-3.25 c 0.55,-0.47 1.13,-0.9 1.68,-1.36 v 0 l 0.19,-0.12 c 0.35,-0.23 0.69,-0.46 1.05,-0.68 a 40.18,40.18 0 0 1 4.2,-2.3 v 0 l 0.2,-0.06 c 0.35,-0.12 0.69,-0.24 1,-0.34 0.75,-0.23 1.51,-0.43 2.27,-0.6 l 0.88,-0.14 h 0.37 a 22.94,22.94 0 0 1 2.49,-0.05 c 0.36,0 0.72,0.07 1.09,0.09 h -0.32 c 0.15,0 0.31,0 0.51,0.07 a 18.52,18.52 0 0 1 2.33,0.6 c 0.15,0 0.29,0.1 0.43,0.15 v 0 c 0.39,0.22 0.82,0.37 1.22,0.59 0.4,0.22 0.91,0.5 1.35,0.78 l 0.44,0.29 a 26.05,26.05 0 0 1 2.42,2.14 c 0.42,0.42 0.81,0.85 1.2,1.3 l 0.59,0.76 a 43.31,43.31 0 0 1 6.72,14.5 q -17.64,20.43 -35.26,40.87 l -5.2699999,6.12 c -1.31,1.51 -2.22,4 -0.8,5.79 q 8.7299999,11 17.4699999,22.06 v 0 192.26 h 75.8 V 161.44 q 5,-6.33 10,-12.66 c 2.46,-3.09 5.11,-6.13 7.41,-9.35 0.11,-0.16 0.24,-0.29 0.36,-0.45 1.45,-1.83 0.53,-4.25 -0.81,-5.79 q -18.44,-21.63 -37.09,-43.21 c -1.09,-1.25 -2.17,-2.52 -3.27,-3.78 a 45.35,45.35 0 0 1 5.8,-13.21 c 0.31,-0.43 0.6,-0.86 0.92,-1.29 0.1,-0.13 0.42,-0.53 0.54,-0.7 a 24,24 0 0 1 2.1,-2.18 c 0.37,-0.34 0.76,-0.67 1.15,-1 0.11,-0.09 0.23,-0.19 0.35,-0.27 a 19,19 0 0 1 2.32,-1.36 c 0.35,-0.18 0.71,-0.33 1.07,-0.5 -1.3,0.63 0,0 0.3,-0.08 a 17.67,17.67 0 0 1 2.49,-0.59 h 0.11 c 0.33,0 0.68,-0.06 1,-0.08 0.84,0 1.68,0 2.5,0.08 h 0.14 c 0,0 0,0 0,0 0.36,0.08 0.71,0.13 1.08,0.19 0.81,0.18 1.62,0.39 2.41,0.64 0.34,0.11 0.68,0.25 1,0.35 v 0 a 0.86,0.86 0 0 0 0.19,0.11 c 0.76,0.34 1.53,0.7 2.26,1.1 0.73,0.4 1.28,0.72 1.89,1.11 l 1,0.68 c 0,0 0,0 0,0 l 0.16,0.14 a 36,36 0 0 1 3.51,3.12 c 0.44,0.45 0.85,0.92 1.27,1.4 a 2.23,2.23 0 0 1 0.2,0.24 c 0.24,0.33 0.49,0.67 0.72,1 0.38,0.54 0.74,1.11 1.07,1.68 q 0.23,0.38 0.42,0.78 a 0.79,0.79 0 0 1 0.08,0.16 0.31,0.31 0 0 1 0,-0.08 c 0,0 0,0.07 0,0.11 0.17,0.35 0.16,0.38 0.09,0.24 0.13,0.43 0.33,0.87 0.46,1.28 l 0.18,0.74 v 0 a 8.87,8.87 0 0 0 0,1.16 1.81,1.81 0 0 0 -0.09,0.37 c -0.18,0.25 -0.34,0.54 -0.5,0.78 0,0 0,0 0,0 a 6.2,6.2 0 0 1 -0.42,0.46 c -0.23,0.2 -0.43,0.4 -0.65,0.58 -0.06,0.06 -0.44,0.33 -0.6,0.46 -0.16,0.13 -0.8,0.49 -1,0.59 a 14.8,14.8 0 0 1 -1.5,0.72 l -1,0.33 c -0.61,0.17 -1.24,0.3 -1.87,0.42 -0.13,0 -1,0.09 -1.26,0.09 h -0.95 -0.2 c 0,0 0,0 -0.06,0 a 14.65,14.65 0 0 1 -1.73,-0.45 c 0,0 0,0 -0.06,0 l -0.75,-0.42 c 0.05,0 -0.58,-0.5 -0.83,-0.73 l -0.2,-0.25 a 9.32,9.32 0 0 1 -0.62,-1.05 8.71,8.71 0 0 1 -0.49,-1.57 c 0.11,0.52 0,0.27 0,0 a 1.77,1.77 0 0 1 0.08,-0.31 v -0.05 a 4.61,4.61 0 0 0 0.39,-0.36 c -0.66,0.68 -0.32,0.25 0.29,-0.1 a 0.56,0.56 0 0 0 0.2,-0.14 c 0,0 0,0 0.11,0 0.7,-0.18 1.4,-0.37 2.11,-0.53 0.46,-0.08 0.44,-0.09 0.32,-0.08 2.71,-0.37 4.77,-2.11 4.77,-4.63 z m -87.83,10.29 c 0.22,-0.08 0.46,-0.14 0,0 z m 41.77,108 c 0.11,0 0.22,0 0.16,0 0.12,0 0.43,0.62 -0.16,0 z m -22.56,143.87 V 181.14 l 10.09,12.74 c 2.65,3.34 5.28,7.73 9.85,8.87 6,1.48 9.34,-2.61 12.37,-6.44 q 5.87,-7.41 11.74,-14.83 v 156 z"
     id="path62" />
  <path
     class="cls-11"
     d="m 61.44256,419.3 q 0,8.58 -7.81,12.7 -3.8,2 -10.85,2.52 -1.93,0.08 -11.43,0.08 h -10.25 c -1,0 -1.43,-0.23 -1.43,-0.71 0,-0.48 0.86,-0.72 2.6,-0.72 2,0 3.21,-0.21 3.58,-0.63 0.37,-0.42 0.54,-1.69 0.54,-3.82 v -45.48 a 14.25,14.25 0 0 0 -0.33,-4.28 c -0.4,-0.68 -1.83,-1 -4.29,-1.1 -1.52,0 -2.27,-0.29 -2.27,-0.88 0,-0.59 0.7,-0.8 2.1,-0.8 h 1 a 6.39,6.39 0 0 0 1.68,0.25 h 16.4 q 9.08,0.09 13.53,3 a 11.25,11.25 0 0 1 5.22,10 11.78,11.78 0 0 1 -4.29,9.38 q -4.29,3.64 -12,4.58 v 0.5 q 7.65,0.51 11.93,3.2 6.37,4.06 6.37,12.21 z m -11.26,-29 q 0,-8.07 -3.7,-10.76 -1.93,-1.42 -7.31,-1.43 c -0.95,0 -2.44,0.09 -4.46,0.26 v 24.38 h 0.76 l 4.62,-0.17 a 9.54,9.54 0 0 0 7.44,-3.41 c 1.77,-2.16 2.65,-5.11 2.65,-8.87 z m 2.44,28.08 q 0,-10.59 -8.58,-13.11 -2.52,-0.76 -9.33,-0.76 v 25 c 0,1.62 0.17,2.55 0.51,2.77 0.56,0.4 2.13,0.59 4.71,0.59 a 12,12 0 0 0 9.24,-3.7 q 3.45,-3.64 3.45,-10.79 z"
     id="path63" />
  <path
     class="cls-11"
     d="m 122.30256,405.77 q 0,12.52 -7.52,21.18 -7.52,8.66 -18.45,8.66 a 25.19,25.19 0 0 1 -19.5,-8.78 q -7.91,-8.79 -7.9,-21.65 0,-13.11 7.6,-21.48 a 25.15,25.15 0 0 1 19.51,-8.32 23.86,23.86 0 0 1 18.75,8.74 q 7.51,8.7 7.51,21.65 z m -9.41,0.42 q 0,-15.42 -6.31,-24 a 12.86,12.86 0 0 0 -11,-5.4 q -6.72,0 -10.42,4.13 -6.81,7.59 -6.81,24.7 0,13.57 4.75,21.08 4.75,7.51 13.32,7.5 a 13,13 0 0 0 12,-7.08 q 4.47,-7.86 4.47,-20.93 z"
     id="path64" />
  <path
     class="cls-11"
     d="m 174.50256,427.96 q 0,2.19 -0.25,7.23 h -0.92 c -0.34,0 -1.15,-0.06 -2.44,-0.17 -1.29,-0.11 -2.74,-0.17 -4.36,-0.17 l -34.9,-0.25 c -1,0 -1.43,-0.25 -1.43,-0.75 0,-0.5 0.76,-0.65 2.27,-0.76 2.13,-0.11 3.4,-0.35 3.83,-0.71 0.43,-0.36 0.63,-1.42 0.63,-3.16 v -47.24 c 0,-2.07 -0.21,-3.28 -0.63,-3.61 -0.42,-0.33 -1.93,-0.51 -4.5,-0.51 -1.07,0 -1.6,-0.3 -1.6,-0.92 0,-0.62 0.34,-0.76 1,-0.76 h 0.76 q 2.77,0.26 11,0.25 0.75,0 2.94,-0.12 c 1.46,-0.09 2.66,-0.13 3.61,-0.13 h 0.93 c 1,0 1.51,0.28 1.51,0.84 a 0.58,0.58 0 0 1 -0.46,0.63 18.48,18.48 0 0 1 -2.9,0.21 c -1.63,0.06 -2.59,0.33 -2.9,0.8 -0.31,0.47 -0.46,2 -0.46,4.41 v 49.6 c 1.51,0.06 3.61,0.08 6.3,0.08 q 9.84,0 13.87,-1 4.03,-1 5.47,-3.78 a 18.76,18.76 0 0 0 1.68,-7.48 c 0.05,-0.73 0.37,-1.09 1,-1.09 0.63,0 1,0.42 1,1.26 v 7.31 z"
     id="path65" />
  <path
     class="cls-11"
     d="m 201.73256,433.89 c 0,0.48 -0.34,0.71 -1,0.71 h -0.84 q -0.51,-0.26 -11.48,-0.25 c -1.41,0 -2.81,0.06 -4.22,0.17 -0.73,0.05 -1.86,0.08 -3.37,0.08 -0.74,0 -1.1,-0.25 -1.1,-0.75 0,-0.5 0.73,-0.7 2.18,-0.76 2.25,-0.06 3.56,-0.32 4,-0.8 0.44,-0.48 0.58,-2.09 0.58,-4.85 v -44.35 c 0,-2.75 -0.14,-4.3 -0.42,-4.64 -0.34,-0.56 -1.9,-0.89 -4.68,-1 -1.08,0 -1.62,-0.24 -1.62,-0.59 0,-0.35 0.34,-0.67 1,-0.67 h 11.48 c 0.85,0 2.49,0 4.93,0.09 l 3.23,-0.09 c 0.91,0 1.36,0.24 1.36,0.72 0,0.48 -1.26,0.69 -3.79,0.79 -1.43,0.06 -2.31,0.31 -2.63,0.76 a 7.86,7.86 0 0 0 -0.47,3.53 v 44.89 c 0,3.19 0.14,4.93 0.43,5.21 q 0.93,0.93 5.53,1.09 0.9,-0.01 0.9,0.71 z"
     id="path66" />
  <path
     class="cls-11"
     d="m 260.91256,376.69 c 0,0.45 -0.53,0.7 -1.6,0.76 -2.46,0 -4.12,0.42 -5,1.09 -0.88,0.67 -1.71,2.25 -2.6,4.72 l -2.86,7.84 q -10.34,28.41 -14.54,43.59 c -0.17,0.67 -0.45,1 -0.84,1 -0.39,0 -1.38,-2.11 -2.78,-6.31 q -3.78,-11.52 -5.88,-17.32 -2.25,-6.39 -6.67,-19.1 l -4.09,-11.32 a 7.17,7.17 0 0 0 -1.85,-3.16 5.87,5.87 0 0 0 -3.36,-0.88 c -1.85,-0.05 -3,-0.11 -3.32,-0.17 a 0.59,0.59 0 0 1 -0.55,-0.67 c 0,-0.5 0.56,-0.76 1.68,-0.76 h 0.76 c 1,0 2.76,0 5.25,0.13 2.49,0.13 4.27,0.13 5.34,0.13 0.28,0 1.36,0 3.24,-0.13 1.88,-0.13 4.55,-0.13 8,-0.13 h 1.18 c 1,0 1.51,0.26 1.51,0.77 0,0.51 -1,0.87 -3,0.91 l -5.13,0.18 c -1.18,0.06 -1.77,0.44 -1.77,1.15 a 3.23,3.23 0 0 0 0.15,0.7 l 0.58,2.3 q 0.18,0.68 8.23,23.68 1.33,4 5.13,15.09 13.92,-39.29 13.92,-41.32 0,-2.03 -4.13,-1.77 h -2.57 c -0.67,0 -1,-0.24 -1,-0.74 0,-0.5 0.84,-0.94 2.52,-0.94 h 2.86 c 1.57,0.17 2.72,0.26 3.45,0.26 h 2.69 l 5.55,-0.26 c 1,0 1.5,0.23 1.5,0.68 z"
     id="path67" />
  <path
     class="cls-11"
     d="m 285.54256,433.89 c 0,0.48 -0.34,0.71 -1,0.71 h -0.85 q -0.51,-0.26 -11.47,-0.25 c -1.41,0 -2.82,0.06 -4.22,0.17 -0.73,0.05 -1.86,0.08 -3.38,0.08 -0.73,0 -1.1,-0.25 -1.1,-0.75 0,-0.5 0.73,-0.7 2.19,-0.76 2.24,-0.06 3.56,-0.32 3.95,-0.8 0.39,-0.48 0.59,-2.09 0.59,-4.85 v -44.35 c 0,-2.75 -0.14,-4.3 -0.43,-4.64 -0.34,-0.56 -1.9,-0.89 -4.68,-1 -1.08,0 -1.62,-0.24 -1.62,-0.59 0,-0.35 0.35,-0.67 1,-0.67 h 11.52 c 0.84,0 2.49,0 4.93,0.09 l 3.23,-0.09 c 0.9,0 1.36,0.24 1.36,0.72 0,0.48 -1.27,0.69 -3.79,0.79 -1.44,0.06 -2.31,0.31 -2.63,0.76 -0.32,0.45 -0.47,1.63 -0.47,3.53 v 44.89 c 0,3.19 0.14,4.93 0.42,5.21 q 0.95,0.93 5.53,1.09 c 0.61,-0.01 0.92,0.2 0.92,0.71 z"
     id="path68" />
  <path
     class="cls-11"
     d="m 344.12256,434.05 q 0,0.72 -1.26,0.72 a 13.64,13.64 0 0 1 -1.51,-0.08 l -10.67,-0.31 -10.68,0.34 a 9.89,9.89 0 0 1 -1.26,0.08 c -1.12,0 -1.68,-0.29 -1.68,-0.88 0,-0.59 0.76,-1 2.27,-1 4.93,0 7.4,-0.55 7.4,-1.48 a 4.6,4.6 0 0 0 -0.18,-0.66 l -0.68,-2.22 -0.44,-1.18 c -0.5,-1.73 -1.73,-5.58 -3.69,-11.52 h -18 q -5,13.44 -5,15.46 a 1.29,1.29 0 0 0 1,1.43 c 0.17,0.06 1.57,0.17 4.21,0.34 q 2.43,0.09 2.43,0.84 c 0,0.56 -0.73,0.84 -2.18,0.84 q -3.87,0 -9,-0.34 c -0.84,0 -1.71,-0.08 -2.6,-0.08 a 11.79,11.79 0 0 0 -2.61,0.28 5.78,5.78 0 0 1 -1.09,0.14 c -0.78,0 -1.18,-0.25 -1.18,-0.76 0,-0.51 0.89,-0.79 2.65,-0.84 a 8.15,8.15 0 0 0 3.82,-0.8 4.77,4.77 0 0 0 1.85,-2.74 q 10.81,-31.05 17.61,-49.85 a 9.64,9.64 0 0 1 0.78,-2.23 l 0.36,-1.54 c 0.17,-0.61 0.39,-0.92 0.67,-0.92 0.28,0 0.31,0.17 0.42,0.5 q 1.1,3.28 5,13.71 3,8.15 15.05,40.93 a 4,4 0 0 0 1.72,2.42 12.2,12.2 0 0 0 4.33,0.61 c 1.42,0.05 2.14,0.32 2.14,0.79 z m -22.86,-20.13 q -1.37,-3.76 -4.52,-12.5 l -4,-11.65 q -3.51,9.3 -8.44,24.15 z"
     id="path69" />
  <path
     class="cls-11"
     d="m 379.93256,420.23 a 52,52 0 0 1 -0.75,7.19 50.69,50.69 0 0 0 -0.76,7.27 c -2,0 -5.72,-0.12 -11.26,-0.34 -2.81,-0.11 -4.82,-0.17 -6.06,-0.17 q -11,0 -16.05,0.51 h -0.59 c -0.73,0 -1.09,-0.26 -1.09,-0.76 0,-0.5 3.56,-2.55 10.67,-6.14 a 29.12,29.12 0 0 0 10.17,-8.23 q 3.87,-5.05 3.87,-10.09 a 10,10 0 0 0 -2.77,-7.36 9.73,9.73 0 0 0 -7.23,-2.81 10.16,10.16 0 0 0 -6.73,2.18 c -1.74,1.46 -2.6,2.86 -2.6,4.21 q 0,0.84 0.42,1.05 a 24,24 0 0 0 3.07,0.84 c 1.76,0.42 2.64,1.36 2.64,2.81 a 3.59,3.59 0 0 1 -3.61,3.62 4.58,4.58 0 0 1 -3.62,-1.81 6.56,6.56 0 0 1 -1.51,-4.33 9.41,9.41 0 0 1 4.2,-7.77 16.62,16.62 0 0 1 10.26,-3.16 c 4.59,0 8.27,1.29 11,3.87 a 11.81,11.81 0 0 1 4.12,8.83 q 0,6.81 -8.47,12.44 c -1.13,0.73 -3.13,1.86 -6,3.4 a 61.36,61.36 0 0 1 -5.63,2.82 c -0.45,0.11 -0.71,0.22 -0.77,0.34 -0.06,0.12 0.51,0.19 1.53,0.25 q 7.78,0.25 13.54,0.08 c 3.21,-0.05 5.2,-0.45 6,-1.18 0.8,-0.73 1.4,-2.77 1.91,-6.13 a 8,8 0 0 1 0.46,-2.06 0.85,0.85 0 0 1 0.81,-0.38 c 0.55,0 0.83,0.34 0.83,1.01 z"
     id="path70" />
  <path
     class="cls-11"
     d="m 426.16256,416.95 q 0,8.74 -8,14.37 a 22.37,22.37 0 0 1 -13.2,4.29 20.51,20.51 0 0 1 -14.42,-5.55 17.47,17.47 0 0 1 -6,-13.28 18.1,18.1 0 0 1 2.73,-9.54 20,20 0 0 1 7.36,-7.1 24.14,24.14 0 0 1 11.94,-3.2 20.16,20.16 0 0 1 7.73,1.64 19.07,19.07 0 0 1 6.47,4.25 19.43,19.43 0 0 1 5.39,14.12 z m -7.06,-0.84 q 0,-7.74 -3.73,-12.53 a 11.79,11.79 0 0 0 -9.76,-4.79 11.05,11.05 0 0 0 -9.39,5.09 q -3.6,5.09 -3.6,13.24 0,8.4 4.78,13.2 a 10.67,10.67 0 0 0 7.71,3.44 q 6.78,0 11,-6 2.99,-4.24 2.99,-11.65 z"
     id="path71" />
  <path
     class="cls-11"
     d="m 466.26256,420.23 a 52.37,52.37 0 0 1 -0.76,7.19 50.69,50.69 0 0 0 -0.76,7.27 c -2,0 -5.71,-0.12 -11.26,-0.34 q -4.2,-0.16 -6.05,-0.17 -11,0 -16.06,0.51 h -0.59 c -0.73,0 -1.09,-0.26 -1.09,-0.76 0,-0.5 3.56,-2.55 10.68,-6.14 a 29.12,29.12 0 0 0 10.17,-8.23 q 3.86,-5.05 3.86,-10.09 a 10,10 0 0 0 -2.77,-7.36 9.73,9.73 0 0 0 -7.23,-2.81 10.11,10.11 0 0 0 -6.72,2.18 q -2.61,2.19 -2.61,4.21 0,0.84 0.42,1.05 a 24,24 0 0 0 3.07,0.84 c 1.76,0.42 2.65,1.36 2.65,2.81 a 3.59,3.59 0 0 1 -3.62,3.62 4.56,4.56 0 0 1 -3.61,-1.81 6.52,6.52 0 0 1 -1.52,-4.33 9.4,9.4 0 0 1 4.21,-7.77 16.61,16.61 0 0 1 10.25,-3.16 q 6.9,0 11,3.87 a 11.81,11.81 0 0 1 4.12,8.83 q 0,6.81 -8.47,12.44 -1.69,1.09 -6,3.4 a 61.36,61.36 0 0 1 -5.63,2.82 c -0.45,0.11 -0.71,0.22 -0.76,0.34 -0.05,0.12 0.5,0.19 1.52,0.25 q 7.79,0.25 13.54,0.08 c 3.21,-0.05 5.2,-0.45 6,-1.18 0.8,-0.73 1.39,-2.77 1.9,-6.13 a 8.44,8.44 0 0 1 0.46,-2.06 0.86,0.86 0 0 1 0.81,-0.38 c 0.56,0 0.85,0.34 0.85,1.01 z"
     id="path72" />
  <path
     class="cls-11"
     d="m 504.92256,434.77 q 0,9.08 -7.9,14.63 a 22.67,22.67 0 0 1 -13.37,4.28 14.38,14.38 0 0 1 -8.36,-2.39 q -3.5,-2.4 -3.49,-5.68 a 4.3,4.3 0 0 1 1.35,-3.23 4.61,4.61 0 0 1 3.36,-1.3 4.06,4.06 0 0 1 2.9,1 3.53,3.53 0 0 1 1.13,2.73 3.36,3.36 0 0 1 -0.5,2 12.57,12.57 0 0 1 -2.69,2.11 0.75,0.75 0 0 0 -0.51,0.67 c 0,0.56 0.68,1.09 2,1.6 a 12.46,12.46 0 0 0 4.37,0.75 12.23,12.23 0 0 0 9.88,-4.49 q 3.73,-4.5 3.74,-11.81 a 16.74,16.74 0 0 0 -3.53,-10.85 10.83,10.83 0 0 0 -8.74,-4.37 q -4,0 -9.16,3.7 l 0.16,-2.44 q 0.09,-0.84 0.42,-15.63 0.18,-6.13 1,-7.23 0.82,-1.1 5.25,-1.09 4.46,0 8.75,0.16 c 1.4,0.06 2.88,0.09 4.45,0.09 a 3.22,3.22 0 0 0 2.14,-0.51 3.91,3.91 0 0 0 0.8,-2.27 c 0.12,-0.78 0.45,-1.17 1,-1.17 0.55,0 0.76,0.36 0.76,1.09 a 7.19,7.19 0 0 1 -0.17,1.68 v 2.58 c -0.06,2.19 -0.45,3.7 -1.18,4.54 -0.73,0.84 -2,1.26 -3.78,1.26 q -3.36,0 -7.48,-0.33 h -4 c -0.9,0 -2.7,0 -5.38,0.16 v 0.93 l -0.26,3.36 c 0,0.79 -0.14,4.65 -0.25,11.6 a 22.35,22.35 0 0 1 10.41,-2.77 16.55,16.55 0 0 1 12.14,4.7 16.09,16.09 0 0 1 4.74,11.94 z"
     id="path73" />
  <path
     class="cls-11"
     d="m 29.27256,451.84 c 2.29,0 2.76,-0.86 2.76,-1.87 0,-1.35 -0.53,-2.09 -1.76,-2.09 -1,0 -1.8,0.82 -1.8,2.23 h -2.43 a 4.16,4.16 0 0 1 4.38,-4.36 c 2.36,0 4.22,1.52 4.22,3.71 a 3.44,3.44 0 0 1 -1.59,3 3.29,3.29 0 0 1 2,3.36 c 0,2.73 -1.94,4.41 -4.79,4.41 a 4.11,4.11 0 0 1 -4.47,-4.47 h 2.56 c 0,1.58 0.7,2.27 2,2.27 a 2,2 0 0 0 2,-2.25 c 0,-1.6 -0.82,-2.13 -3,-2.13 z"
     id="path74" />
  <path
     class="cls-11"
     d="m 37.32256,459.81 a 19.64,19.64 0 0 1 4.78,-11.25 h -6.64 v -2.36 h 9.58 v 2 a 18.64,18.64 0 0 0 -5,11.61 z"
     id="path75" />
  <path
     class="cls-11"
     d="m 48.14256,452.98 v -6.54 h -2.38 v -1.39 h 6.44 v 1.39 h -2.4 v 6.54 z"
     id="path76" />
  <path
     class="cls-11"
     d="m 57.67256,452.98 v -3.6 h -3.1 v 3.56 h -1.66 v -7.93 h 1.66 v 3 h 3.1 v -3 h 1.67 v 7.93 z"
     id="path77" />
  <path
     class="cls-11"
     d="M 65.91256,459.81 V 446.2 h 2.85 v 13.61 z"
     id="path78" />
  <path
     class="cls-11"
     d="m 79.04256,459.81 -5.82,-9.14 v 9.14 h -2.65 V 446.2 h 3 l 5.4,8.75 v -8.75 h 2.67 v 13.61 z"
     id="path79" />
  <path
     class="cls-11"
     d="m 87.21256,459.81 v -11.23 h -4.1 v -2.38 h 11.06 v 2.38 h -4.13 v 11.23 z"
     id="path80" />
  <path
     class="cls-11"
     d="M 95.67256,459.81 V 446.2 h 10 v 2.38 h -7.23 v 2.91 h 6.66 v 2.39 h -6.66 v 3.5 h 7.6 v 2.42 z"
     id="path81" />
  <path
     class="cls-11"
     d="m 115.33256,459.81 v -3.51 c 0,-1.31 -0.49,-1.82 -2.13,-1.82 h -3 v 5.33 h -2.77 V 446.2 h 6.91 a 3.89,3.89 0 0 1 4.18,3.93 3.18,3.18 0 0 1 -2,3.16 c 1.21,0.39 1.66,1.06 1.66,2.66 v 3.86 z m -5.16,-11.25 v 3.62 h 3.56 c 1.52,0 2.09,-0.75 2.09,-1.8 0,-1.05 -0.57,-1.82 -2,-1.82 z"
     id="path82" />
  <path
     class="cls-11"
     d="m 128.53256,459.81 -5.82,-9.14 v 9.14 h -2.67 V 446.2 h 3 l 5.41,8.75 v -8.75 h 2.66 v 13.61 z"
     id="path83" />
  <path
     class="cls-11"
     d="m 142.45256,459.81 -0.86,-2.81 h -5 l -1,2.81 h -3 l 4.86,-13.61 h 3.3 l 4.79,13.61 z m -3.41,-10.56 v 0 l -1.74,5.41 h 3.46 z"
     id="path84" />
  <path
     class="cls-11"
     d="m 147.25256,459.81 v -11.23 h -4.1 v -2.38 h 11.06 v 2.38 h -4.11 v 11.23 z"
     id="path85" />
  <path
     class="cls-11"
     d="M 155.72256,459.81 V 446.2 h 2.85 v 13.61 z"
     id="path86" />
  <path
     class="cls-11"
     d="m 160.20256,453.13 c 0,-4.61 2.36,-7.38 6.54,-7.38 4.18,0 6.5,2.77 6.5,7.44 0,4.67 -2.32,7.09 -6.5,7.09 -4.18,0 -6.54,-2.57 -6.54,-7.15 z m 10.23,0.06 c 0,-3.22 -1.31,-4.92 -3.69,-4.92 -2.38,0 -3.73,1.7 -3.73,4.92 0,3.22 1.38,4.65 3.73,4.65 2.05,0 3.69,-1.46 3.69,-4.65 z"
     id="path87" />
  <path
     class="cls-11"
     d="m 183.39256,459.81 -5.82,-9.14 v 9.14 h -2.65 V 446.2 h 3 l 5.41,8.75 v -8.75 h 2.71 v 13.61 z"
     id="path88" />
  <path
     class="cls-11"
     d="m 197.30256,459.81 -0.86,-2.81 h -5 l -1,2.81 h -3 l 4.86,-13.61 h 3.29 l 4.8,13.61 z m -3.38,-10.56 v 0 l -1.74,5.41 h 3.46 z"
     id="path89" />
  <path
     class="cls-11"
     d="M 201.86256,459.81 V 446.2 h 2.85 v 11.18 h 6.74 v 2.48 z"
     id="path90" />
  <path
     class="cls-11"
     d="m 218.55256,453.13 c 0,-4.61 2.35,-7.38 6.53,-7.38 4.18,0 6.5,2.77 6.5,7.44 0,4.67 -2.32,7.09 -6.5,7.09 -4.18,0 -6.53,-2.57 -6.53,-7.15 z m 10.22,0.06 c 0,-3.22 -1.31,-4.92 -3.69,-4.92 -2.38,0 -3.73,1.7 -3.73,4.92 0,3.22 1.38,4.65 3.73,4.65 2.05,0 3.69,-1.46 3.69,-4.65 z"
     id="path91" />
  <path
     class="cls-11"
     d="M 233.26256,459.81 V 446.2 h 2.85 v 11.18 h 6.74 v 2.48 z"
     id="path92" />
  <path
     class="cls-11"
     d="m 244.93256,459.81 v -5.15 l -4.71,-8.46 h 3.31 l 2.87,5.53 2.65,-5.53 h 3.27 l -4.54,8.5 v 5.11 z"
     id="path93" />
  <path
     class="cls-11"
     d="m 264.32256,459.81 v -9.33 l -2.55,9.33 h -2.82 l -2.52,-9.29 v 9.29 h -2.65 V 446.2 h 4.18 l 2.46,10 2.46,-10 h 4.1 v 13.61 z"
     id="path94" />
  <path
     class="cls-11"
     d="M 268.85256,459.81 V 446.2 h 6 a 4.22,4.22 0 0 1 4.36,4.41 4.09,4.09 0 0 1 -4.36,4.26 h -3.16 v 4.94 z m 5.56,-7.26 c 1.63,0 2.31,-0.84 2.31,-2 0,-1.16 -0.68,-2 -2.31,-2 h -2.71 v 4 z"
     id="path95" />
  <path
     class="cls-11"
     d="M 280.62256,459.81 V 446.2 h 2.85 v 13.61 z"
     id="path96" />
  <path
     class="cls-11"
     d="m 294.72256,459.81 -0.86,-2.81 h -5 l -1,2.81 h -3 l 4.86,-13.61 h 3.32 l 4.79,13.61 z m -3.38,-10.56 v 0 l -1.74,5.41 h 3.44 z"
     id="path97" />
  <path
     class="cls-11"
     d="M 299.27256,459.81 V 446.2 h 5.27 c 3.69,0 6.31,2.52 6.31,6.66 0,4.14 -2.36,6.95 -5.88,6.95 z m 5.13,-2.32 c 2.48,0 3.54,-1.56 3.54,-4.63 0,-3.07 -1.06,-4.3 -3.79,-4.3 h -2.11 v 8.93 z"
     id="path98" />
  <path
     class="cls-11"
     d="M 318.30256,459.81 V 446.2 h 2.85 v 13.61 z"
     id="path99" />
  <path
     class="cls-11"
     d="m 331.41256,459.81 -5.82,-9.14 v 9.14 h -2.64 V 446.2 h 3 l 5.41,8.75 v -8.75 h 2.68 v 13.61 z"
     id="path100" />
  <path
     class="cls-11"
     d="M 341.65256,459.81 V 446.2 h 2.84 v 13.61 z"
     id="path101" />
  <path
     class="cls-11"
     d="m 354.76256,459.81 -5.82,-9.14 v 9.14 h -2.64 V 446.2 h 3 l 5.41,8.75 v -8.75 h 2.66 v 13.61 z"
     id="path102" />
  <path
     class="cls-11"
     d="m 362.04256,454.07 v 5.74 h -2.85 V 446.2 h 9.7 v 2.38 h -6.85 v 3.09 h 6 v 2.4 z"
     id="path103" />
  <path
     class="cls-11"
     d="m 369.61256,453.13 c 0,-4.61 2.35,-7.38 6.53,-7.38 4.18,0 6.5,2.77 6.5,7.44 0,4.67 -2.32,7.09 -6.5,7.09 -4.18,0 -6.53,-2.57 -6.53,-7.15 z m 10.22,0.06 c 0,-3.22 -1.31,-4.92 -3.69,-4.92 -2.38,0 -3.73,1.7 -3.73,4.92 0,3.22 1.38,4.65 3.73,4.65 2.05,0 3.69,-1.46 3.69,-4.65 z"
     id="path104" />
  <path
     class="cls-11"
     d="m 392.25256,459.81 v -3.51 c 0,-1.31 -0.49,-1.82 -2.13,-1.82 h -3 v 5.33 h -2.76 V 446.2 h 6.9 a 3.89,3.89 0 0 1 4.18,3.93 3.18,3.18 0 0 1 -2,3.16 c 1.21,0.39 1.66,1.06 1.66,2.66 v 3.86 z m -5.16,-11.25 v 3.62 h 3.57 c 1.51,0 2.09,-0.75 2.09,-1.8 0,-1.05 -0.58,-1.82 -2,-1.82 z"
     id="path105" />
  <path
     class="cls-11"
     d="m 407.52256,459.81 v -9.33 l -2.54,9.33 h -2.82 l -2.52,-9.29 v 9.29 h -2.6 V 446.2 h 4.18 l 2.46,10 2.46,-10 h 4.1 v 13.61 z"
     id="path106" />
  <path
     class="cls-11"
     d="m 421.51256,459.81 -0.86,-2.81 h -5 l -1,2.81 h -3 l 4.86,-13.61 h 3.3 l 4.79,13.61 z m -3.38,-10.56 v 0 l -1.74,5.41 h 3.47 z"
     id="path107" />
  <path
     class="cls-11"
     d="m 426.31256,459.81 v -11.23 h -4.1 v -2.38 h 11.06 v 2.38 h -4.12 v 11.23 z"
     id="path108" />
  <path
     class="cls-11"
     d="M 434.77256,459.81 V 446.2 h 2.85 v 13.61 z"
     id="path109" />
  <path
     class="cls-11"
     d="m 451.41256,455.13 c -0.57,3.1 -2.7,5.15 -5.86,5.15 -3.56,0 -6.29,-2.44 -6.29,-7.11 0,-4.67 2.44,-7.42 6.33,-7.42 3.41,0 5.56,2.17 5.82,4.92 h -2.84 a 3.07,3.07 0 0 0 -3,-2.46 c -2.35,0 -3.46,1.82 -3.46,4.79 0,2.97 1.11,4.8 3.32,4.8 a 3,3 0 0 0 3.1,-2.67 z"
     id="path110" />
  <path
     class="cls-11"
     d="m 460.52256,450.22 c -0.15,-1.4 -1,-2.07 -2.71,-2.07 -1.71,0 -2.43,0.57 -2.43,1.6 0,0.86 0.59,1.35 2.11,1.72 a 24.76,24.76 0 0 1 4,1.19 3.22,3.22 0 0 1 2.13,3.29 c 0,3 -2.25,4.33 -5.43,4.33 -3.36,0 -5.69,-1.5 -5.75,-4.55 h 2.74 c 0,1.39 1.21,2.25 3,2.25 1.79,0 2.65,-0.72 2.65,-1.92 0,-0.8 -0.41,-1.36 -2.11,-1.73 a 18.89,18.89 0 0 1 -3.73,-1 3.39,3.39 0 0 1 -2.28,-3.36 c 0,-2.44 1.66,-4.18 5,-4.18 3.34,0 5.37,1.87 5.47,4.47 z"
     id="path111" />
</svg>
